<svg width="16" height="16" viewBox="0 0 16 16" fill="none" xmlns="http://www.w3.org/2000/svg">
<rect width="16" height="16" fill="#0B3183"/>
<g clip-path="url(#clip0_43_259)">
<rect x="6.8046" y="8" width="3.21839" height="3.03448" fill="white"/>
<path d="M13.3125 11.2569C13.3125 11.6348 13.0115 11.9415 12.6407 11.9415H10.066C10.6035 11.3939 10.9368 10.638 10.9368 9.80554C10.9368 9.42763 10.8669 9.06615 10.7433 8.73206C10.84 8.85803 10.9153 8.99495 10.9744 9.14283C10.9744 9.14283 10.9852 9.16473 10.9852 9.17569C11.5334 10.5121 12.6675 10.5723 12.6675 10.5723L12.7482 10.5887C13.0653 10.638 13.3072 10.9174 13.3072 11.2569H13.3125Z" fill="#E0834D"/>
<path d="M10.0552 11.9416H10.066C10.6035 11.3939 10.9367 10.6381 10.9367 9.80557C10.9367 9.42766 10.8669 9.06618 10.7432 8.73209C10.7432 8.72113 10.7271 8.71565 10.7217 8.7047C10.711 8.67184 10.7002 8.63898 10.6895 8.60612C10.7164 8.57873 10.7432 8.55682 10.7701 8.52944C11.012 8.28298 11.1625 7.93793 11.1625 7.56002C11.1625 6.8042 10.5605 6.19078 9.81875 6.19078H8.74375V4.72843C8.74375 4.32314 8.42662 4 8.02887 4C7.98587 4 7.9375 4.00548 7.8945 4.01095H7.88375C7.80312 4.03286 7.72787 4.06025 7.658 4.10406C7.48062 4.21908 7.35162 4.41077 7.31937 4.63533L6.99687 5.85121L6.67437 4.63533C6.626 4.27385 6.325 4 5.96487 4C5.74987 4 5.55637 4.09859 5.42737 4.25194C5.3145 4.37791 5.25 4.54222 5.25 4.72843V16H10.84C10.625 14.8498 10.3939 13.6942 10.2057 12.7631V12.7303C10.1735 12.5988 10.1466 12.4674 10.1197 12.3469C10.0929 12.2099 10.066 12.084 10.0445 11.9635C10.0391 11.958 10.0391 11.9525 10.0391 11.9471H10.0552V11.9416ZM8.74375 10.2492C8.50725 10.2492 8.29225 10.1451 8.14712 9.97535H7.66875C7.37312 9.97535 7.13125 9.72889 7.13125 9.42766C7.13125 9.12643 7.37312 8.87996 7.66875 8.87996H8.14712C8.29225 8.71018 8.50725 8.60612 8.74375 8.60612C9.18987 8.60612 9.55 8.97307 9.55 9.42766C9.55 9.88225 9.18987 10.2492 8.74375 10.2492Z" fill="white"/>
<circle cx="8.78161" cy="9.42529" r="0.781609" fill="#0B3183"/>
</g>
<defs>
<clipPath id="clip0_43_259">
<rect width="8.0625" height="12" fill="white" transform="translate(5.25 4)"/>
</clipPath>
</defs>
</svg>
