<svg width="553" height="311" viewBox="0 0 553 311" fill="none" xmlns="http://www.w3.org/2000/svg">
<rect x="91" y="196" width="372" height="44" rx="22" fill="#020A17"/>
<path d="M112.261 216.534L110.756 216.96C110.661 216.709 110.521 216.465 110.337 216.229C110.157 215.987 109.911 215.788 109.598 215.632C109.286 215.476 108.885 215.398 108.398 215.398C107.73 215.398 107.174 215.552 106.729 215.859C106.288 216.162 106.068 216.548 106.068 217.017C106.068 217.434 106.22 217.763 106.523 218.004C106.826 218.246 107.299 218.447 107.943 218.608L109.562 219.006C110.538 219.242 111.265 219.605 111.743 220.092C112.221 220.575 112.46 221.198 112.46 221.96C112.46 222.585 112.28 223.144 111.92 223.636C111.565 224.129 111.068 224.517 110.429 224.801C109.79 225.085 109.046 225.227 108.199 225.227C107.086 225.227 106.165 224.986 105.436 224.503C104.707 224.02 104.245 223.314 104.051 222.386L105.642 221.989C105.794 222.576 106.08 223.016 106.501 223.31C106.928 223.603 107.484 223.75 108.17 223.75C108.952 223.75 109.572 223.584 110.031 223.253C110.495 222.917 110.727 222.514 110.727 222.045C110.727 221.667 110.595 221.349 110.33 221.094C110.064 220.833 109.657 220.639 109.108 220.511L107.29 220.085C106.291 219.848 105.557 219.482 105.088 218.984C104.624 218.482 104.392 217.855 104.392 217.102C104.392 216.487 104.565 215.942 104.911 215.469C105.261 214.995 105.737 214.624 106.338 214.354C106.944 214.084 107.631 213.949 108.398 213.949C109.477 213.949 110.325 214.186 110.94 214.659C111.561 215.133 112.001 215.758 112.261 216.534ZM116.063 229.091C115.779 229.091 115.525 229.067 115.303 229.02C115.08 228.977 114.926 228.935 114.841 228.892L115.267 227.415C115.675 227.519 116.034 227.557 116.347 227.528C116.659 227.5 116.936 227.36 117.178 227.109C117.424 226.863 117.649 226.463 117.853 225.909L118.165 225.057L114.131 214.091H115.949L118.961 222.784H119.074L122.086 214.091H123.904L119.273 226.591C119.065 227.154 118.807 227.621 118.499 227.99C118.191 228.364 117.834 228.641 117.426 228.821C117.024 229.001 116.569 229.091 116.063 229.091ZM133.843 216.534L132.338 216.96C132.243 216.709 132.103 216.465 131.919 216.229C131.739 215.987 131.493 215.788 131.18 215.632C130.868 215.476 130.467 215.398 129.98 215.398C129.312 215.398 128.756 215.552 128.311 215.859C127.87 216.162 127.65 216.548 127.65 217.017C127.65 217.434 127.802 217.763 128.105 218.004C128.408 218.246 128.881 218.447 129.525 218.608L131.145 219.006C132.12 219.242 132.847 219.605 133.325 220.092C133.803 220.575 134.042 221.198 134.042 221.96C134.042 222.585 133.862 223.144 133.502 223.636C133.147 224.129 132.65 224.517 132.011 224.801C131.372 225.085 130.628 225.227 129.781 225.227C128.668 225.227 127.747 224.986 127.018 224.503C126.289 224.02 125.827 223.314 125.633 222.386L127.224 221.989C127.376 222.576 127.662 223.016 128.083 223.31C128.51 223.603 129.066 223.75 129.752 223.75C130.534 223.75 131.154 223.584 131.613 223.253C132.077 222.917 132.309 222.514 132.309 222.045C132.309 221.667 132.177 221.349 131.912 221.094C131.646 220.833 131.239 220.639 130.69 220.511L128.872 220.085C127.873 219.848 127.139 219.482 126.67 218.984C126.206 218.482 125.974 217.855 125.974 217.102C125.974 216.487 126.147 215.942 126.493 215.469C126.843 214.995 127.319 214.624 127.92 214.354C128.526 214.084 129.213 213.949 129.98 213.949C131.059 213.949 131.907 214.186 132.522 214.659C133.143 215.133 133.583 215.758 133.843 216.534ZM141.31 214.091V215.511H135.656V214.091H141.31ZM137.304 211.477H138.98V221.875C138.98 222.348 139.049 222.704 139.186 222.94C139.328 223.172 139.508 223.329 139.726 223.409C139.948 223.485 140.183 223.523 140.429 223.523C140.614 223.523 140.765 223.513 140.884 223.494C141.002 223.471 141.097 223.452 141.168 223.438L141.509 224.943C141.395 224.986 141.236 225.028 141.033 225.071C140.829 225.118 140.571 225.142 140.259 225.142C139.785 225.142 139.321 225.04 138.866 224.837C138.417 224.633 138.043 224.323 137.744 223.906C137.451 223.49 137.304 222.964 137.304 222.33V211.477ZM148.288 225.227C147.237 225.227 146.33 224.995 145.567 224.531C144.81 224.062 144.225 223.409 143.813 222.571C143.406 221.728 143.202 220.748 143.202 219.631C143.202 218.513 143.406 217.528 143.813 216.676C144.225 215.819 144.798 215.152 145.532 214.673C146.271 214.19 147.132 213.949 148.117 213.949C148.685 213.949 149.246 214.044 149.8 214.233C150.354 214.422 150.859 214.73 151.313 215.156C151.768 215.578 152.13 216.136 152.4 216.832C152.67 217.528 152.805 218.385 152.805 219.403V220.114H144.396V218.665H151.1C151.1 218.049 150.977 217.5 150.731 217.017C150.489 216.534 150.144 216.153 149.694 215.874C149.249 215.594 148.723 215.455 148.117 215.455C147.45 215.455 146.872 215.62 146.384 215.952C145.901 216.278 145.53 216.705 145.269 217.23C145.009 217.756 144.879 218.319 144.879 218.92V219.886C144.879 220.71 145.021 221.409 145.305 221.982C145.594 222.55 145.994 222.983 146.505 223.281C147.016 223.575 147.611 223.722 148.288 223.722C148.728 223.722 149.126 223.66 149.481 223.537C149.841 223.409 150.151 223.22 150.411 222.969C150.672 222.713 150.873 222.396 151.015 222.017L152.634 222.472C152.464 223.021 152.177 223.504 151.775 223.92C151.372 224.332 150.875 224.654 150.283 224.886C149.692 225.114 149.026 225.227 148.288 225.227ZM155.354 225V214.091H156.974V215.795H157.116C157.343 215.213 157.71 214.761 158.217 214.439C158.723 214.112 159.332 213.949 160.042 213.949C160.762 213.949 161.361 214.112 161.839 214.439C162.322 214.761 162.698 215.213 162.968 215.795H163.082C163.361 215.232 163.78 214.785 164.339 214.453C164.897 214.117 165.567 213.949 166.349 213.949C167.324 213.949 168.122 214.254 168.742 214.865C169.362 215.471 169.673 216.416 169.673 217.699V225H167.996V217.699C167.996 216.894 167.776 216.319 167.336 215.973C166.896 215.627 166.377 215.455 165.781 215.455C165.013 215.455 164.419 215.687 163.998 216.151C163.576 216.61 163.366 217.192 163.366 217.898V225H161.661V217.528C161.661 216.908 161.46 216.409 161.058 216.03C160.655 215.646 160.137 215.455 159.502 215.455C159.067 215.455 158.659 215.571 158.281 215.803C157.906 216.035 157.603 216.357 157.371 216.768C157.144 217.176 157.031 217.647 157.031 218.182V225H155.354ZM177.879 209.773L173.192 227.188H171.658L176.345 209.773H177.879ZM184.298 225.227C183.275 225.227 182.395 224.986 181.656 224.503C180.917 224.02 180.349 223.355 179.951 222.507C179.554 221.66 179.355 220.691 179.355 219.602C179.355 218.494 179.558 217.517 179.966 216.669C180.377 215.817 180.95 215.152 181.684 214.673C182.423 214.19 183.285 213.949 184.27 213.949C185.037 213.949 185.728 214.091 186.343 214.375C186.959 214.659 187.463 215.057 187.856 215.568C188.249 216.08 188.493 216.676 188.588 217.358H186.912C186.784 216.861 186.5 216.42 186.059 216.037C185.624 215.649 185.037 215.455 184.298 215.455C183.645 215.455 183.072 215.625 182.579 215.966C182.092 216.302 181.71 216.778 181.436 217.393C181.166 218.004 181.031 218.722 181.031 219.545C181.031 220.388 181.163 221.122 181.429 221.747C181.699 222.372 182.077 222.857 182.565 223.203C183.057 223.549 183.635 223.722 184.298 223.722C184.734 223.722 185.129 223.646 185.484 223.494C185.839 223.343 186.14 223.125 186.386 222.841C186.632 222.557 186.807 222.216 186.912 221.818H188.588C188.493 222.462 188.259 223.042 187.885 223.558C187.515 224.07 187.025 224.477 186.414 224.78C185.808 225.078 185.103 225.227 184.298 225.227ZM195.47 225.227C194.485 225.227 193.621 224.993 192.877 224.524C192.139 224.055 191.561 223.4 191.145 222.557C190.733 221.714 190.527 220.729 190.527 219.602C190.527 218.466 190.733 217.474 191.145 216.626C191.561 215.779 192.139 215.121 192.877 214.652C193.621 214.183 194.485 213.949 195.47 213.949C196.455 213.949 197.316 214.183 198.055 214.652C198.798 215.121 199.376 215.779 199.788 216.626C200.205 217.474 200.413 218.466 200.413 219.602C200.413 220.729 200.205 221.714 199.788 222.557C199.376 223.4 198.798 224.055 198.055 224.524C197.316 224.993 196.455 225.227 195.47 225.227ZM195.47 223.722C196.218 223.722 196.833 223.53 197.316 223.146C197.799 222.763 198.157 222.259 198.389 221.634C198.621 221.009 198.737 220.331 198.737 219.602C198.737 218.873 198.621 218.194 198.389 217.564C198.157 216.934 197.799 216.425 197.316 216.037C196.833 215.649 196.218 215.455 195.47 215.455C194.722 215.455 194.106 215.649 193.623 216.037C193.14 216.425 192.783 216.934 192.551 217.564C192.319 218.194 192.203 218.873 192.203 219.602C192.203 220.331 192.319 221.009 192.551 221.634C192.783 222.259 193.14 222.763 193.623 223.146C194.106 223.53 194.722 223.722 195.47 223.722ZM204.648 210.455V225H202.972V210.455H204.648ZM212.15 225.227C211.165 225.227 210.301 224.993 209.557 224.524C208.819 224.055 208.241 223.4 207.824 222.557C207.412 221.714 207.206 220.729 207.206 219.602C207.206 218.466 207.412 217.474 207.824 216.626C208.241 215.779 208.819 215.121 209.557 214.652C210.301 214.183 211.165 213.949 212.15 213.949C213.134 213.949 213.996 214.183 214.735 214.652C215.478 215.121 216.056 215.779 216.468 216.626C216.884 217.474 217.093 218.466 217.093 219.602C217.093 220.729 216.884 221.714 216.468 222.557C216.056 223.4 215.478 224.055 214.735 224.524C213.996 224.993 213.134 225.227 212.15 225.227ZM212.15 223.722C212.898 223.722 213.513 223.53 213.996 223.146C214.479 222.763 214.837 222.259 215.069 221.634C215.301 221.009 215.417 220.331 215.417 219.602C215.417 218.873 215.301 218.194 215.069 217.564C214.837 216.934 214.479 216.425 213.996 216.037C213.513 215.649 212.898 215.455 212.15 215.455C211.401 215.455 210.786 215.649 210.303 216.037C209.82 216.425 209.462 216.934 209.23 217.564C208.998 218.194 208.882 218.873 208.882 219.602C208.882 220.331 208.998 221.009 209.23 221.634C209.462 222.259 209.82 222.763 210.303 223.146C210.786 223.53 211.401 223.722 212.15 223.722ZM219.651 225V214.091H221.271V215.739H221.384C221.583 215.199 221.943 214.761 222.464 214.425C222.985 214.089 223.572 213.92 224.225 213.92C224.348 213.92 224.502 213.923 224.687 213.928C224.871 213.932 225.011 213.939 225.106 213.949V215.653C225.049 215.639 224.919 215.618 224.715 215.589C224.516 215.556 224.306 215.54 224.083 215.54C223.553 215.54 223.079 215.651 222.663 215.874C222.251 216.091 221.924 216.394 221.683 216.783C221.446 217.166 221.327 217.604 221.327 218.097V225H219.651ZM231.551 209.773L226.864 227.188H225.33L230.017 209.773H231.551ZM238.112 225.227C237.061 225.227 236.154 224.995 235.392 224.531C234.634 224.062 234.049 223.409 233.637 222.571C233.23 221.728 233.027 220.748 233.027 219.631C233.027 218.513 233.23 217.528 233.637 216.676C234.049 215.819 234.622 215.152 235.356 214.673C236.095 214.19 236.957 213.949 237.941 213.949C238.51 213.949 239.071 214.044 239.625 214.233C240.179 214.422 240.683 214.73 241.137 215.156C241.592 215.578 241.954 216.136 242.224 216.832C242.494 217.528 242.629 218.385 242.629 219.403V220.114H234.22V218.665H240.924C240.924 218.049 240.801 217.5 240.555 217.017C240.314 216.534 239.968 216.153 239.518 215.874C239.073 215.594 238.547 215.455 237.941 215.455C237.274 215.455 236.696 215.62 236.208 215.952C235.725 216.278 235.354 216.705 235.093 217.23C234.833 217.756 234.703 218.319 234.703 218.92V219.886C234.703 220.71 234.845 221.409 235.129 221.982C235.418 222.55 235.818 222.983 236.329 223.281C236.841 223.575 237.435 223.722 238.112 223.722C238.552 223.722 238.95 223.66 239.305 223.537C239.665 223.409 239.975 223.22 240.235 222.969C240.496 222.713 240.697 222.396 240.839 222.017L242.458 222.472C242.288 223.021 242.002 223.504 241.599 223.92C241.197 224.332 240.699 224.654 240.108 224.886C239.516 225.114 238.85 225.227 238.112 225.227ZM246.855 210.455V225H245.179V210.455H246.855ZM254.499 225.227C253.447 225.227 252.541 224.995 251.778 224.531C251.021 224.062 250.436 223.409 250.024 222.571C249.617 221.728 249.413 220.748 249.413 219.631C249.413 218.513 249.617 217.528 250.024 216.676C250.436 215.819 251.009 215.152 251.743 214.673C252.482 214.19 253.343 213.949 254.328 213.949C254.896 213.949 255.457 214.044 256.011 214.233C256.565 214.422 257.07 214.73 257.524 215.156C257.979 215.578 258.341 216.136 258.611 216.832C258.881 217.528 259.016 218.385 259.016 219.403V220.114H250.607V218.665H257.311C257.311 218.049 257.188 217.5 256.942 217.017C256.7 216.534 256.355 216.153 255.905 215.874C255.46 215.594 254.934 215.455 254.328 215.455C253.661 215.455 253.083 215.62 252.595 215.952C252.112 216.278 251.741 216.705 251.48 217.23C251.22 217.756 251.089 218.319 251.089 218.92V219.886C251.089 220.71 251.232 221.409 251.516 221.982C251.804 222.55 252.205 222.983 252.716 223.281C253.227 223.575 253.821 223.722 254.499 223.722C254.939 223.722 255.337 223.66 255.692 223.537C256.052 223.409 256.362 223.22 256.622 222.969C256.883 222.713 257.084 222.396 257.226 222.017L258.845 222.472C258.675 223.021 258.388 223.504 257.986 223.92C257.583 224.332 257.086 224.654 256.494 224.886C255.902 225.114 255.237 225.227 254.499 225.227ZM270.154 214.091L266.12 225H264.415L260.381 214.091H262.199L265.211 222.784H265.324L268.336 214.091H270.154ZM275.244 225.256C274.553 225.256 273.926 225.125 273.362 224.865C272.799 224.6 272.351 224.219 272.02 223.722C271.688 223.22 271.523 222.614 271.523 221.903C271.523 221.278 271.646 220.772 271.892 220.384C272.138 219.991 272.467 219.683 272.879 219.46C273.291 219.238 273.746 219.072 274.243 218.963C274.745 218.849 275.249 218.759 275.756 218.693C276.419 218.608 276.956 218.544 277.368 218.501C277.785 218.454 278.088 218.376 278.277 218.267C278.471 218.158 278.568 217.969 278.568 217.699V217.642C278.568 216.941 278.376 216.397 277.993 216.009C277.614 215.62 277.039 215.426 276.267 215.426C275.467 215.426 274.839 215.601 274.385 215.952C273.93 216.302 273.611 216.676 273.426 217.074L271.835 216.506C272.119 215.843 272.498 215.327 272.972 214.957C273.45 214.583 273.971 214.323 274.534 214.176C275.102 214.025 275.661 213.949 276.21 213.949C276.561 213.949 276.963 213.991 277.418 214.077C277.877 214.157 278.32 214.325 278.746 214.581C279.177 214.837 279.534 215.223 279.818 215.739C280.102 216.255 280.244 216.946 280.244 217.812V225H278.568V223.523H278.483C278.369 223.759 278.18 224.013 277.915 224.283C277.65 224.553 277.297 224.782 276.857 224.972C276.416 225.161 275.879 225.256 275.244 225.256ZM275.5 223.75C276.163 223.75 276.722 223.62 277.176 223.359C277.635 223.099 277.981 222.763 278.213 222.351C278.45 221.939 278.568 221.506 278.568 221.051V219.517C278.497 219.602 278.341 219.68 278.099 219.751C277.863 219.818 277.588 219.877 277.276 219.929C276.968 219.976 276.667 220.019 276.374 220.057C276.085 220.09 275.85 220.118 275.67 220.142C275.235 220.199 274.828 220.291 274.449 220.419C274.075 220.542 273.772 220.729 273.54 220.98C273.313 221.226 273.199 221.562 273.199 221.989C273.199 222.571 273.414 223.011 273.845 223.31C274.281 223.603 274.832 223.75 275.5 223.75ZM288.048 214.091V215.511H282.395V214.091H288.048ZM284.042 211.477H285.718V221.875C285.718 222.348 285.787 222.704 285.924 222.94C286.066 223.172 286.246 223.329 286.464 223.409C286.687 223.485 286.921 223.523 287.167 223.523C287.352 223.523 287.503 223.513 287.622 223.494C287.74 223.471 287.835 223.452 287.906 223.438L288.247 224.943C288.133 224.986 287.975 225.028 287.771 225.071C287.567 225.118 287.309 225.142 286.997 225.142C286.523 225.142 286.059 225.04 285.605 224.837C285.155 224.633 284.781 224.323 284.483 223.906C284.189 223.49 284.042 222.964 284.042 222.33V211.477ZM290.569 225V214.091H292.245V225H290.569ZM291.422 212.273C291.095 212.273 290.813 212.161 290.576 211.939C290.344 211.716 290.228 211.449 290.228 211.136C290.228 210.824 290.344 210.556 290.576 210.334C290.813 210.111 291.095 210 291.422 210C291.748 210 292.028 210.111 292.26 210.334C292.496 210.556 292.615 210.824 292.615 211.136C292.615 211.449 292.496 211.716 292.26 211.939C292.028 212.161 291.748 212.273 291.422 212.273ZM299.747 225.227C298.762 225.227 297.898 224.993 297.155 224.524C296.416 224.055 295.839 223.4 295.422 222.557C295.01 221.714 294.804 220.729 294.804 219.602C294.804 218.466 295.01 217.474 295.422 216.626C295.839 215.779 296.416 215.121 297.155 214.652C297.898 214.183 298.762 213.949 299.747 213.949C300.732 213.949 301.594 214.183 302.332 214.652C303.076 215.121 303.653 215.779 304.065 216.626C304.482 217.474 304.69 218.466 304.69 219.602C304.69 220.729 304.482 221.714 304.065 222.557C303.653 223.4 303.076 224.055 302.332 224.524C301.594 224.993 300.732 225.227 299.747 225.227ZM299.747 223.722C300.495 223.722 301.111 223.53 301.594 223.146C302.077 222.763 302.434 222.259 302.666 221.634C302.898 221.009 303.014 220.331 303.014 219.602C303.014 218.873 302.898 218.194 302.666 217.564C302.434 216.934 302.077 216.425 301.594 216.037C301.111 215.649 300.495 215.455 299.747 215.455C298.999 215.455 298.384 215.649 297.901 216.037C297.418 216.425 297.06 216.934 296.828 217.564C296.596 218.194 296.48 218.873 296.48 219.602C296.48 220.331 296.596 221.009 296.828 221.634C297.06 222.259 297.418 222.763 297.901 223.146C298.384 223.53 298.999 223.722 299.747 223.722ZM308.925 218.438V225H307.249V214.091H308.868V215.795H309.01C309.266 215.241 309.654 214.796 310.175 214.46C310.696 214.119 311.368 213.949 312.192 213.949C312.931 213.949 313.577 214.1 314.131 214.403C314.685 214.702 315.116 215.156 315.424 215.767C315.731 216.373 315.885 217.14 315.885 218.068V225H314.209V218.182C314.209 217.325 313.987 216.657 313.542 216.179C313.096 215.696 312.486 215.455 311.709 215.455C311.174 215.455 310.696 215.571 310.275 215.803C309.858 216.035 309.529 216.373 309.287 216.818C309.046 217.263 308.925 217.803 308.925 218.438ZM324.09 209.773L319.403 227.188H317.869L322.556 209.773H324.09ZM326.304 225V210.455H327.98V215.824H328.123C328.246 215.634 328.416 215.393 328.634 215.099C328.856 214.801 329.174 214.536 329.586 214.304C330.002 214.067 330.566 213.949 331.276 213.949C332.194 213.949 333.004 214.179 333.705 214.638C334.406 215.097 334.953 215.748 335.346 216.591C335.739 217.434 335.935 218.428 335.935 219.574C335.935 220.729 335.739 221.731 335.346 222.578C334.953 223.421 334.408 224.074 333.712 224.538C333.016 224.998 332.213 225.227 331.304 225.227C330.604 225.227 330.042 225.111 329.621 224.879C329.2 224.643 328.875 224.375 328.648 224.077C328.421 223.774 328.246 223.523 328.123 223.324H327.924V225H326.304ZM327.952 219.545C327.952 220.369 328.073 221.096 328.314 221.726C328.556 222.351 328.908 222.841 329.373 223.196C329.837 223.546 330.405 223.722 331.077 223.722C331.778 223.722 332.363 223.537 332.831 223.168C333.305 222.794 333.66 222.292 333.897 221.662C334.138 221.027 334.259 220.322 334.259 219.545C334.259 218.778 334.141 218.087 333.904 217.472C333.672 216.851 333.319 216.361 332.846 216.001C332.377 215.637 331.787 215.455 331.077 215.455C330.395 215.455 329.822 215.627 329.358 215.973C328.894 216.314 328.544 216.792 328.307 217.408C328.07 218.018 327.952 218.731 327.952 219.545ZM341.709 225.256C341.018 225.256 340.391 225.125 339.827 224.865C339.264 224.6 338.816 224.219 338.485 223.722C338.153 223.22 337.988 222.614 337.988 221.903C337.988 221.278 338.111 220.772 338.357 220.384C338.603 219.991 338.932 219.683 339.344 219.46C339.756 219.238 340.211 219.072 340.708 218.963C341.21 218.849 341.714 218.759 342.221 218.693C342.883 218.608 343.421 218.544 343.833 218.501C344.249 218.454 344.552 218.376 344.742 218.267C344.936 218.158 345.033 217.969 345.033 217.699V217.642C345.033 216.941 344.841 216.397 344.458 216.009C344.079 215.62 343.504 215.426 342.732 215.426C341.932 215.426 341.304 215.601 340.85 215.952C340.395 216.302 340.076 216.676 339.891 217.074L338.3 216.506C338.584 215.843 338.963 215.327 339.436 214.957C339.915 214.583 340.435 214.323 340.999 214.176C341.567 214.025 342.126 213.949 342.675 213.949C343.025 213.949 343.428 213.991 343.882 214.077C344.342 214.157 344.784 214.325 345.211 214.581C345.641 214.837 345.999 215.223 346.283 215.739C346.567 216.255 346.709 216.946 346.709 217.812V225H345.033V223.523H344.948C344.834 223.759 344.645 224.013 344.38 224.283C344.114 224.553 343.762 224.782 343.321 224.972C342.881 225.161 342.344 225.256 341.709 225.256ZM341.965 223.75C342.628 223.75 343.186 223.62 343.641 223.359C344.1 223.099 344.446 222.763 344.678 222.351C344.915 221.939 345.033 221.506 345.033 221.051V219.517C344.962 219.602 344.806 219.68 344.564 219.751C344.328 219.818 344.053 219.877 343.74 219.929C343.433 219.976 343.132 220.019 342.838 220.057C342.55 220.09 342.315 220.118 342.135 220.142C341.7 220.199 341.292 220.291 340.914 220.419C340.54 220.542 340.237 220.729 340.005 220.98C339.777 221.226 339.664 221.562 339.664 221.989C339.664 222.571 339.879 223.011 340.31 223.31C340.746 223.603 341.297 223.75 341.965 223.75ZM357.496 216.534L355.99 216.96C355.895 216.709 355.756 216.465 355.571 216.229C355.391 215.987 355.145 215.788 354.832 215.632C354.52 215.476 354.12 215.398 353.632 215.398C352.964 215.398 352.408 215.552 351.963 215.859C351.523 216.162 351.303 216.548 351.303 217.017C351.303 217.434 351.454 217.763 351.757 218.004C352.06 218.246 352.534 218.447 353.178 218.608L354.797 219.006C355.772 219.242 356.499 219.605 356.977 220.092C357.455 220.575 357.695 221.198 357.695 221.96C357.695 222.585 357.515 223.144 357.155 223.636C356.8 224.129 356.303 224.517 355.663 224.801C355.024 225.085 354.281 225.227 353.433 225.227C352.321 225.227 351.4 224.986 350.67 224.503C349.941 224.02 349.48 223.314 349.286 222.386L350.876 221.989C351.028 222.576 351.314 223.016 351.736 223.31C352.162 223.603 352.718 223.75 353.405 223.75C354.186 223.75 354.806 223.584 355.266 223.253C355.73 222.917 355.962 222.514 355.962 222.045C355.962 221.667 355.829 221.349 355.564 221.094C355.299 220.833 354.892 220.639 354.342 220.511L352.524 220.085C351.525 219.848 350.791 219.482 350.322 218.984C349.858 218.482 349.626 217.855 349.626 217.102C349.626 216.487 349.799 215.942 350.145 215.469C350.495 214.995 350.971 214.624 351.572 214.354C352.179 214.084 352.865 213.949 353.632 213.949C354.712 213.949 355.559 214.186 356.175 214.659C356.795 215.133 357.235 215.758 357.496 216.534ZM364.792 225.227C363.74 225.227 362.834 224.995 362.071 224.531C361.314 224.062 360.729 223.409 360.317 222.571C359.91 221.728 359.706 220.748 359.706 219.631C359.706 218.513 359.91 217.528 360.317 216.676C360.729 215.819 361.302 215.152 362.036 214.673C362.775 214.19 363.636 213.949 364.621 213.949C365.189 213.949 365.75 214.044 366.304 214.233C366.858 214.422 367.363 214.73 367.817 215.156C368.272 215.578 368.634 216.136 368.904 216.832C369.174 217.528 369.309 218.385 369.309 219.403V220.114H360.9V218.665H367.604C367.604 218.049 367.481 217.5 367.235 217.017C366.993 216.534 366.648 216.153 366.198 215.874C365.753 215.594 365.227 215.455 364.621 215.455C363.953 215.455 363.376 215.62 362.888 215.952C362.405 216.278 362.033 216.705 361.773 217.23C361.513 217.756 361.382 218.319 361.382 218.92V219.886C361.382 220.71 361.525 221.409 361.809 221.982C362.097 222.55 362.498 222.983 363.009 223.281C363.52 223.575 364.114 223.722 364.792 223.722C365.232 223.722 365.63 223.66 365.985 223.537C366.345 223.409 366.655 223.22 366.915 222.969C367.176 222.713 367.377 222.396 367.519 222.017L369.138 222.472C368.968 223.021 368.681 223.504 368.279 223.92C367.876 224.332 367.379 224.654 366.787 224.886C366.195 225.114 365.53 225.227 364.792 225.227ZM377 209.773L372.313 227.188H370.779L375.466 209.773H377ZM383.419 225.227C382.396 225.227 381.516 224.986 380.777 224.503C380.038 224.02 379.47 223.355 379.072 222.507C378.675 221.66 378.476 220.691 378.476 219.602C378.476 218.494 378.679 217.517 379.087 216.669C379.499 215.817 380.071 215.152 380.805 214.673C381.544 214.19 382.406 213.949 383.391 213.949C384.158 213.949 384.849 214.091 385.464 214.375C386.08 214.659 386.584 215.057 386.977 215.568C387.37 216.08 387.614 216.676 387.709 217.358H386.033C385.905 216.861 385.621 216.42 385.18 216.037C384.745 215.649 384.158 215.455 383.419 215.455C382.766 215.455 382.193 215.625 381.7 215.966C381.213 216.302 380.831 216.778 380.557 217.393C380.287 218.004 380.152 218.722 380.152 219.545C380.152 220.388 380.285 221.122 380.55 221.747C380.82 222.372 381.198 222.857 381.686 223.203C382.179 223.549 382.756 223.722 383.419 223.722C383.855 223.722 384.25 223.646 384.605 223.494C384.96 223.343 385.261 223.125 385.507 222.841C385.753 222.557 385.929 222.216 386.033 221.818H387.709C387.614 222.462 387.38 223.042 387.006 223.558C386.636 224.07 386.146 224.477 385.536 224.78C384.929 225.078 384.224 225.227 383.419 225.227ZM394.591 225.227C393.606 225.227 392.742 224.993 391.999 224.524C391.26 224.055 390.682 223.4 390.266 222.557C389.854 221.714 389.648 220.729 389.648 219.602C389.648 218.466 389.854 217.474 390.266 216.626C390.682 215.779 391.26 215.121 391.999 214.652C392.742 214.183 393.606 213.949 394.591 213.949C395.576 213.949 396.438 214.183 397.176 214.652C397.92 215.121 398.497 215.779 398.909 216.626C399.326 217.474 399.534 218.466 399.534 219.602C399.534 220.729 399.326 221.714 398.909 222.557C398.497 223.4 397.92 224.055 397.176 224.524C396.438 224.993 395.576 225.227 394.591 225.227ZM394.591 223.722C395.339 223.722 395.955 223.53 396.438 223.146C396.92 222.763 397.278 222.259 397.51 221.634C397.742 221.009 397.858 220.331 397.858 219.602C397.858 218.873 397.742 218.194 397.51 217.564C397.278 216.934 396.92 216.425 396.438 216.037C395.955 215.649 395.339 215.455 394.591 215.455C393.843 215.455 393.227 215.649 392.744 216.037C392.261 216.425 391.904 216.934 391.672 217.564C391.44 218.194 391.324 218.873 391.324 219.602C391.324 220.331 391.44 221.009 391.672 221.634C391.904 222.259 392.261 222.763 392.744 223.146C393.227 223.53 393.843 223.722 394.591 223.722ZM403.769 218.438V225H402.093V214.091H403.712V215.795H403.854C404.11 215.241 404.498 214.796 405.019 214.46C405.54 214.119 406.212 213.949 407.036 213.949C407.775 213.949 408.421 214.1 408.975 214.403C409.529 214.702 409.96 215.156 410.267 215.767C410.575 216.373 410.729 217.14 410.729 218.068V225H409.053V218.182C409.053 217.325 408.83 216.657 408.385 216.179C407.94 215.696 407.329 215.455 406.553 215.455C406.018 215.455 405.54 215.571 405.118 215.803C404.702 216.035 404.373 216.373 404.131 216.818C403.89 217.263 403.769 217.803 403.769 218.438ZM418.536 214.091V215.511H412.883V214.091H418.536ZM414.531 211.477H416.207V221.875C416.207 222.348 416.275 222.704 416.413 222.94C416.555 223.172 416.735 223.329 416.952 223.409C417.175 223.485 417.409 223.523 417.656 223.523C417.84 223.523 417.992 223.513 418.11 223.494C418.228 223.471 418.323 223.452 418.394 223.438L418.735 224.943C418.621 224.986 418.463 225.028 418.259 225.071C418.056 225.118 417.798 225.142 417.485 225.142C417.012 225.142 416.548 225.04 416.093 224.837C415.643 224.633 415.269 224.323 414.971 223.906C414.677 223.49 414.531 222.964 414.531 222.33V211.477ZM425.514 225.227C424.463 225.227 423.556 224.995 422.794 224.531C422.036 224.062 421.452 223.409 421.04 222.571C420.633 221.728 420.429 220.748 420.429 219.631C420.429 218.513 420.633 217.528 421.04 216.676C421.452 215.819 422.025 215.152 422.759 214.673C423.497 214.19 424.359 213.949 425.344 213.949C425.912 213.949 426.473 214.044 427.027 214.233C427.581 214.422 428.085 214.73 428.54 215.156C428.994 215.578 429.357 216.136 429.626 216.832C429.896 217.528 430.031 218.385 430.031 219.403V220.114H421.622V218.665H428.327C428.327 218.049 428.204 217.5 427.957 217.017C427.716 216.534 427.37 216.153 426.92 215.874C426.475 215.594 425.95 215.455 425.344 215.455C424.676 215.455 424.098 215.62 423.611 215.952C423.128 216.278 422.756 216.705 422.496 217.23C422.235 217.756 422.105 218.319 422.105 218.92V219.886C422.105 220.71 422.247 221.409 422.531 221.982C422.82 222.55 423.22 222.983 423.732 223.281C424.243 223.575 424.837 223.722 425.514 223.722C425.955 223.722 426.352 223.66 426.707 223.537C427.067 223.409 427.377 223.22 427.638 222.969C427.898 222.713 428.099 222.396 428.241 222.017L429.861 222.472C429.69 223.021 429.404 223.504 429.001 223.92C428.599 224.332 428.102 224.654 427.51 224.886C426.918 225.114 426.253 225.227 425.514 225.227ZM434.257 218.438V225H432.581V214.091H434.2V215.795H434.342C434.598 215.241 434.986 214.796 435.507 214.46C436.028 214.119 436.7 213.949 437.524 213.949C438.263 213.949 438.909 214.1 439.463 214.403C440.017 214.702 440.448 215.156 440.756 215.767C441.063 216.373 441.217 217.14 441.217 218.068V225H439.541V218.182C439.541 217.325 439.319 216.657 438.874 216.179C438.429 215.696 437.818 215.455 437.041 215.455C436.506 215.455 436.028 215.571 435.607 215.803C435.19 216.035 434.861 216.373 434.619 216.818C434.378 217.263 434.257 217.803 434.257 218.438ZM449.025 214.091V215.511H443.371V214.091H449.025ZM445.019 211.477H446.695V221.875C446.695 222.348 446.764 222.704 446.901 222.94C447.043 223.172 447.223 223.329 447.441 223.409C447.663 223.485 447.898 223.523 448.144 223.523C448.328 223.523 448.48 223.513 448.598 223.494C448.717 223.471 448.811 223.452 448.882 223.438L449.223 224.943C449.11 224.986 448.951 225.028 448.748 225.071C448.544 225.118 448.286 225.142 447.973 225.142C447.5 225.142 447.036 225.04 446.581 224.837C446.132 224.633 445.757 224.323 445.459 223.906C445.166 223.49 445.019 222.964 445.019 222.33V211.477Z" fill="white"/>
<path d="M255.667 118.333L259.866 135.129C259.984 135.602 260.043 135.838 260.113 136.044C260.795 138.059 262.609 139.475 264.729 139.649C264.946 139.667 265.19 139.667 265.677 139.667C266.286 139.667 266.591 139.667 266.848 139.642C269.387 139.395 271.395 137.387 271.642 134.848C271.667 134.591 271.667 134.286 271.667 133.677V95.6666M294.333 117C299.488 117 303.667 112.821 303.667 107.667C303.667 102.512 299.488 98.3333 294.333 98.3333M272.333 95.6666H262.333C255.706 95.6666 250.333 101.039 250.333 107.667C250.333 114.294 255.706 119.667 262.333 119.667H272.333C277.044 119.667 282.806 122.192 287.251 124.615C289.845 126.029 291.141 126.736 291.991 126.632C292.778 126.535 293.374 126.182 293.835 125.536C294.333 124.84 294.333 123.448 294.333 120.663V94.67C294.333 91.8853 294.333 90.4929 293.835 89.797C293.374 89.1517 292.778 88.7981 291.991 88.7016C291.141 88.5976 289.845 89.3045 287.251 90.7182C282.806 93.1416 277.044 95.6666 272.333 95.6666Z" stroke="#020A17" stroke-width="5.33333" stroke-linecap="round" stroke-linejoin="round"/>
</svg>
