<svg width="553" height="311" viewBox="0 0 553 311" fill="none" xmlns="http://www.w3.org/2000/svg">
<rect width="553" height="311" fill="#F3F6FA"/>
<rect x="54" y="129" width="121.5" height="81" rx="40.5" fill="#078337"/>
<rect x="99.5625" y="134.062" width="70.875" height="70.875" rx="35.4375" fill="#F3F6FA"/>
<path d="M151.875 156.844L128.672 180.047L118.125 169.5" stroke="#078337" stroke-width="4.21875" stroke-linecap="round" stroke-linejoin="round"/>
<path d="M82.6667 144C82.6667 146.946 85.0545 149.333 88 149.333C90.9455 149.333 93.3333 146.946 93.3333 144C93.3333 141.054 90.9455 138.667 88 138.667C85.0545 138.667 82.6667 141.054 82.6667 144ZM196 113.5C196.552 113.5 197 113.052 197 112.5C197 111.948 196.552 111.5 196 111.5V113.5ZM88 112.5V111.5H87V112.5H88ZM88 144H89V112.5H88H87V144H88ZM88 112.5V113.5H196V112.5V111.5H88V112.5Z" fill="black"/>
<path d="M145.667 190C145.667 192.946 148.054 195.333 151 195.333C153.946 195.333 156.333 192.946 156.333 190C156.333 187.054 153.946 184.667 151 184.667C148.054 184.667 145.667 187.054 145.667 190ZM196 191C196.552 191 197 190.552 197 190C197 189.448 196.552 189 196 189V191ZM151 190V191H196V190V189H151V190Z" fill="black"/>
<path d="M218.409 108.227L217.205 108.568C217.129 108.367 217.017 108.172 216.869 107.983C216.725 107.79 216.528 107.631 216.278 107.506C216.028 107.381 215.708 107.318 215.318 107.318C214.784 107.318 214.339 107.441 213.983 107.688C213.631 107.93 213.455 108.239 213.455 108.614C213.455 108.947 213.576 109.21 213.818 109.403C214.061 109.597 214.439 109.758 214.955 109.886L216.25 110.205C217.03 110.394 217.612 110.684 217.994 111.074C218.377 111.46 218.568 111.958 218.568 112.568C218.568 113.068 218.424 113.515 218.136 113.909C217.852 114.303 217.455 114.614 216.943 114.841C216.432 115.068 215.837 115.182 215.159 115.182C214.269 115.182 213.532 114.989 212.949 114.602C212.366 114.216 211.996 113.652 211.841 112.909L213.114 112.591C213.235 113.061 213.464 113.413 213.801 113.648C214.142 113.883 214.587 114 215.136 114C215.761 114 216.258 113.867 216.625 113.602C216.996 113.333 217.182 113.011 217.182 112.636C217.182 112.333 217.076 112.08 216.864 111.875C216.652 111.667 216.326 111.511 215.886 111.409L214.432 111.068C213.633 110.879 213.045 110.585 212.67 110.188C212.299 109.786 212.114 109.284 212.114 108.682C212.114 108.189 212.252 107.754 212.528 107.375C212.809 106.996 213.189 106.699 213.67 106.483C214.155 106.267 214.705 106.159 215.318 106.159C216.182 106.159 216.86 106.348 217.352 106.727C217.848 107.106 218.201 107.606 218.409 108.227ZM221.45 118.273C221.223 118.273 221.02 118.254 220.842 118.216C220.664 118.182 220.541 118.148 220.473 118.114L220.814 116.932C221.14 117.015 221.428 117.045 221.678 117.023C221.928 117 222.149 116.888 222.342 116.688C222.539 116.491 222.719 116.17 222.882 115.727L223.132 115.045L219.905 106.273H221.359L223.768 113.227H223.859L226.268 106.273H227.723L224.018 116.273C223.852 116.723 223.645 117.097 223.399 117.392C223.153 117.691 222.867 117.913 222.541 118.057C222.219 118.201 221.856 118.273 221.45 118.273ZM235.675 108.227L234.47 108.568C234.394 108.367 234.283 108.172 234.135 107.983C233.991 107.79 233.794 107.631 233.544 107.506C233.294 107.381 232.974 107.318 232.584 107.318C232.05 107.318 231.605 107.441 231.249 107.688C230.896 107.93 230.72 108.239 230.72 108.614C230.72 108.947 230.841 109.21 231.084 109.403C231.326 109.597 231.705 109.758 232.22 109.886L233.516 110.205C234.296 110.394 234.877 110.684 235.26 111.074C235.643 111.46 235.834 111.958 235.834 112.568C235.834 113.068 235.69 113.515 235.402 113.909C235.118 114.303 234.72 114.614 234.209 114.841C233.697 115.068 233.103 115.182 232.425 115.182C231.535 115.182 230.798 114.989 230.214 114.602C229.631 114.216 229.262 113.652 229.107 112.909L230.379 112.591C230.5 113.061 230.73 113.413 231.067 113.648C231.408 113.883 231.853 114 232.402 114C233.027 114 233.523 113.867 233.891 113.602C234.262 113.333 234.447 113.011 234.447 112.636C234.447 112.333 234.341 112.08 234.129 111.875C233.917 111.667 233.591 111.511 233.152 111.409L231.697 111.068C230.898 110.879 230.311 110.585 229.936 110.188C229.565 109.786 229.379 109.284 229.379 108.682C229.379 108.189 229.518 107.754 229.794 107.375C230.074 106.996 230.455 106.699 230.936 106.483C231.421 106.267 231.97 106.159 232.584 106.159C233.447 106.159 234.125 106.348 234.618 106.727C235.114 107.106 235.466 107.606 235.675 108.227ZM241.648 106.273V107.409H237.125V106.273H241.648ZM238.443 104.182H239.784V112.5C239.784 112.879 239.839 113.163 239.949 113.352C240.063 113.538 240.206 113.663 240.381 113.727C240.559 113.788 240.746 113.818 240.943 113.818C241.091 113.818 241.212 113.811 241.307 113.795C241.402 113.777 241.477 113.761 241.534 113.75L241.807 114.955C241.716 114.989 241.589 115.023 241.426 115.057C241.263 115.095 241.057 115.114 240.807 115.114C240.428 115.114 240.057 115.032 239.693 114.869C239.333 114.706 239.034 114.458 238.795 114.125C238.561 113.792 238.443 113.371 238.443 112.864V104.182ZM247.23 115.182C246.389 115.182 245.664 114.996 245.054 114.625C244.448 114.25 243.98 113.727 243.651 113.057C243.325 112.383 243.162 111.598 243.162 110.705C243.162 109.811 243.325 109.023 243.651 108.341C243.98 107.655 244.438 107.121 245.026 106.739C245.616 106.352 246.306 106.159 247.094 106.159C247.548 106.159 247.997 106.235 248.44 106.386C248.884 106.538 249.287 106.784 249.651 107.125C250.014 107.462 250.304 107.909 250.52 108.466C250.736 109.023 250.844 109.708 250.844 110.523V111.091H244.116V109.932H249.48C249.48 109.439 249.382 109 249.185 108.614C248.991 108.227 248.715 107.922 248.355 107.699C247.999 107.475 247.579 107.364 247.094 107.364C246.56 107.364 246.098 107.496 245.707 107.761C245.321 108.023 245.024 108.364 244.815 108.784C244.607 109.205 244.503 109.655 244.503 110.136V110.909C244.503 111.568 244.616 112.127 244.844 112.585C245.075 113.04 245.395 113.386 245.804 113.625C246.213 113.86 246.688 113.977 247.23 113.977C247.582 113.977 247.901 113.928 248.185 113.83C248.473 113.727 248.721 113.576 248.929 113.375C249.137 113.17 249.298 112.917 249.412 112.614L250.707 112.977C250.571 113.417 250.342 113.803 250.02 114.136C249.698 114.466 249.3 114.723 248.827 114.909C248.353 115.091 247.821 115.182 247.23 115.182ZM252.884 115V106.273H254.179V107.636H254.293C254.474 107.17 254.768 106.809 255.173 106.551C255.579 106.29 256.065 106.159 256.634 106.159C257.209 106.159 257.688 106.29 258.071 106.551C258.457 106.809 258.759 107.17 258.974 107.636H259.065C259.289 107.186 259.624 106.828 260.071 106.562C260.518 106.294 261.054 106.159 261.679 106.159C262.459 106.159 263.098 106.403 263.594 106.892C264.09 107.377 264.338 108.133 264.338 109.159V115H262.997V109.159C262.997 108.515 262.821 108.055 262.469 107.778C262.116 107.502 261.702 107.364 261.224 107.364C260.611 107.364 260.135 107.549 259.798 107.92C259.461 108.288 259.293 108.754 259.293 109.318V115H257.929V109.023C257.929 108.527 257.768 108.127 257.446 107.824C257.124 107.517 256.709 107.364 256.202 107.364C255.853 107.364 255.527 107.456 255.224 107.642C254.925 107.828 254.683 108.085 254.497 108.415C254.315 108.741 254.224 109.117 254.224 109.545V115H252.884ZM270.903 102.818L267.153 116.75H265.926L269.676 102.818H270.903ZM276.038 115.182C275.22 115.182 274.516 114.989 273.925 114.602C273.334 114.216 272.879 113.684 272.561 113.006C272.243 112.328 272.084 111.553 272.084 110.682C272.084 109.795 272.247 109.013 272.572 108.335C272.902 107.653 273.36 107.121 273.947 106.739C274.538 106.352 275.228 106.159 276.016 106.159C276.629 106.159 277.182 106.273 277.675 106.5C278.167 106.727 278.571 107.045 278.885 107.455C279.199 107.864 279.394 108.341 279.47 108.886H278.129C278.027 108.489 277.8 108.136 277.447 107.83C277.099 107.519 276.629 107.364 276.038 107.364C275.516 107.364 275.057 107.5 274.663 107.773C274.273 108.042 273.968 108.422 273.749 108.915C273.533 109.403 273.425 109.977 273.425 110.636C273.425 111.311 273.531 111.898 273.743 112.398C273.959 112.898 274.262 113.286 274.652 113.562C275.046 113.839 275.508 113.977 276.038 113.977C276.387 113.977 276.703 113.917 276.987 113.795C277.271 113.674 277.512 113.5 277.709 113.273C277.906 113.045 278.046 112.773 278.129 112.455H279.47C279.394 112.97 279.207 113.434 278.908 113.847C278.612 114.256 278.22 114.581 277.732 114.824C277.247 115.062 276.682 115.182 276.038 115.182ZM284.976 115.182C284.188 115.182 283.497 114.994 282.902 114.619C282.311 114.244 281.849 113.72 281.516 113.045C281.186 112.371 281.021 111.583 281.021 110.682C281.021 109.773 281.186 108.979 281.516 108.301C281.849 107.623 282.311 107.097 282.902 106.722C283.497 106.347 284.188 106.159 284.976 106.159C285.764 106.159 286.453 106.347 287.044 106.722C287.639 107.097 288.101 107.623 288.43 108.301C288.764 108.979 288.93 109.773 288.93 110.682C288.93 111.583 288.764 112.371 288.43 113.045C288.101 113.72 287.639 114.244 287.044 114.619C286.453 114.994 285.764 115.182 284.976 115.182ZM284.976 113.977C285.574 113.977 286.067 113.824 286.453 113.517C286.839 113.21 287.125 112.807 287.311 112.307C287.497 111.807 287.589 111.265 287.589 110.682C287.589 110.098 287.497 109.555 287.311 109.051C287.125 108.547 286.839 108.14 286.453 107.83C286.067 107.519 285.574 107.364 284.976 107.364C284.377 107.364 283.885 107.519 283.499 107.83C283.112 108.14 282.826 108.547 282.641 109.051C282.455 109.555 282.362 110.098 282.362 110.682C282.362 111.265 282.455 111.807 282.641 112.307C282.826 112.807 283.112 113.21 283.499 113.517C283.885 113.824 284.377 113.977 284.976 113.977ZM292.318 103.364V115H290.977V103.364H292.318ZM298.32 115.182C297.532 115.182 296.84 114.994 296.246 114.619C295.655 114.244 295.193 113.72 294.859 113.045C294.53 112.371 294.365 111.583 294.365 110.682C294.365 109.773 294.53 108.979 294.859 108.301C295.193 107.623 295.655 107.097 296.246 106.722C296.84 106.347 297.532 106.159 298.32 106.159C299.107 106.159 299.797 106.347 300.388 106.722C300.982 107.097 301.445 107.623 301.774 108.301C302.107 108.979 302.274 109.773 302.274 110.682C302.274 111.583 302.107 112.371 301.774 113.045C301.445 113.72 300.982 114.244 300.388 114.619C299.797 114.994 299.107 115.182 298.32 115.182ZM298.32 113.977C298.918 113.977 299.411 113.824 299.797 113.517C300.183 113.21 300.469 112.807 300.655 112.307C300.84 111.807 300.933 111.265 300.933 110.682C300.933 110.098 300.84 109.555 300.655 109.051C300.469 108.547 300.183 108.14 299.797 107.83C299.411 107.519 298.918 107.364 298.32 107.364C297.721 107.364 297.229 107.519 296.842 107.83C296.456 108.14 296.17 108.547 295.984 109.051C295.799 109.555 295.706 110.098 295.706 110.682C295.706 111.265 295.799 111.807 295.984 112.307C296.17 112.807 296.456 113.21 296.842 113.517C297.229 113.824 297.721 113.977 298.32 113.977ZM304.321 115V106.273H305.616V107.591H305.707C305.866 107.159 306.154 106.809 306.571 106.54C306.988 106.271 307.457 106.136 307.98 106.136C308.079 106.136 308.202 106.138 308.349 106.142C308.497 106.146 308.609 106.152 308.685 106.159V107.523C308.639 107.511 308.535 107.494 308.372 107.472C308.213 107.445 308.045 107.432 307.866 107.432C307.442 107.432 307.063 107.521 306.73 107.699C306.401 107.873 306.139 108.116 305.946 108.426C305.757 108.733 305.662 109.083 305.662 109.477V115H304.321ZM313.841 102.818L310.091 116.75H308.864L312.614 102.818H313.841ZM319.317 106.273V107.409H314.612V106.273H319.317ZM316.021 115V105.068C316.021 104.568 316.139 104.152 316.374 103.818C316.608 103.485 316.913 103.235 317.288 103.068C317.663 102.902 318.059 102.818 318.476 102.818C318.805 102.818 319.074 102.845 319.283 102.898C319.491 102.951 319.646 103 319.749 103.045L319.362 104.205C319.294 104.182 319.199 104.153 319.078 104.119C318.961 104.085 318.805 104.068 318.612 104.068C318.169 104.068 317.849 104.18 317.652 104.403C317.459 104.627 317.362 104.955 317.362 105.386V115H316.021ZM326.696 111.432V106.273H328.037V115H326.696V113.523H326.605C326.401 113.966 326.082 114.343 325.651 114.653C325.219 114.96 324.673 115.114 324.014 115.114C323.469 115.114 322.984 114.994 322.56 114.756C322.135 114.513 321.802 114.15 321.56 113.665C321.317 113.176 321.196 112.561 321.196 111.818V106.273H322.537V111.727C322.537 112.364 322.715 112.871 323.071 113.25C323.431 113.629 323.889 113.818 324.446 113.818C324.779 113.818 325.118 113.733 325.463 113.562C325.812 113.392 326.103 113.131 326.338 112.778C326.577 112.426 326.696 111.977 326.696 111.432ZM331.834 109.75V115H330.493V106.273H331.788V107.636H331.902C332.107 107.193 332.417 106.837 332.834 106.568C333.25 106.295 333.788 106.159 334.447 106.159C335.038 106.159 335.555 106.28 335.999 106.523C336.442 106.761 336.786 107.125 337.033 107.614C337.279 108.098 337.402 108.712 337.402 109.455V115H336.061V109.545C336.061 108.86 335.883 108.326 335.527 107.943C335.171 107.557 334.682 107.364 334.061 107.364C333.633 107.364 333.25 107.456 332.913 107.642C332.58 107.828 332.317 108.098 332.124 108.455C331.93 108.811 331.834 109.242 331.834 109.75ZM343.398 115.182C342.58 115.182 341.875 114.989 341.284 114.602C340.693 114.216 340.239 113.684 339.92 113.006C339.602 112.328 339.443 111.553 339.443 110.682C339.443 109.795 339.606 109.013 339.932 108.335C340.261 107.653 340.72 107.121 341.307 106.739C341.898 106.352 342.587 106.159 343.375 106.159C343.989 106.159 344.542 106.273 345.034 106.5C345.527 106.727 345.93 107.045 346.244 107.455C346.559 107.864 346.754 108.341 346.83 108.886H345.489C345.386 108.489 345.159 108.136 344.807 107.83C344.458 107.519 343.989 107.364 343.398 107.364C342.875 107.364 342.417 107.5 342.023 107.773C341.633 108.042 341.328 108.422 341.108 108.915C340.892 109.403 340.784 109.977 340.784 110.636C340.784 111.311 340.89 111.898 341.102 112.398C341.318 112.898 341.621 113.286 342.011 113.562C342.405 113.839 342.867 113.977 343.398 113.977C343.746 113.977 344.062 113.917 344.347 113.795C344.631 113.674 344.871 113.5 345.068 113.273C345.265 113.045 345.405 112.773 345.489 112.455H346.83C346.754 112.97 346.566 113.434 346.267 113.847C345.972 114.256 345.58 114.581 345.091 114.824C344.606 115.062 344.042 115.182 343.398 115.182ZM352.585 106.273V107.409H348.062V106.273H352.585ZM349.381 104.182H350.722V112.5C350.722 112.879 350.777 113.163 350.886 113.352C351 113.538 351.144 113.663 351.318 113.727C351.496 113.788 351.684 113.818 351.881 113.818C352.028 113.818 352.15 113.811 352.244 113.795C352.339 113.777 352.415 113.761 352.472 113.75L352.744 114.955C352.653 114.989 352.527 115.023 352.364 115.057C352.201 115.095 351.994 115.114 351.744 115.114C351.366 115.114 350.994 115.032 350.631 114.869C350.271 114.706 349.972 114.458 349.733 114.125C349.498 113.792 349.381 113.371 349.381 112.864V104.182ZM354.602 115V106.273H355.943V115H354.602ZM355.284 104.818C355.023 104.818 354.797 104.729 354.608 104.551C354.422 104.373 354.33 104.159 354.33 103.909C354.33 103.659 354.422 103.445 354.608 103.267C354.797 103.089 355.023 103 355.284 103C355.545 103 355.769 103.089 355.955 103.267C356.144 103.445 356.239 103.659 356.239 103.909C356.239 104.159 356.144 104.373 355.955 104.551C355.769 104.729 355.545 104.818 355.284 104.818ZM361.945 115.182C361.157 115.182 360.465 114.994 359.871 114.619C359.28 114.244 358.818 113.72 358.484 113.045C358.155 112.371 357.99 111.583 357.99 110.682C357.99 109.773 358.155 108.979 358.484 108.301C358.818 107.623 359.28 107.097 359.871 106.722C360.465 106.347 361.157 106.159 361.945 106.159C362.732 106.159 363.422 106.347 364.013 106.722C364.607 107.097 365.07 107.623 365.399 108.301C365.732 108.979 365.899 109.773 365.899 110.682C365.899 111.583 365.732 112.371 365.399 113.045C365.07 113.72 364.607 114.244 364.013 114.619C363.422 114.994 362.732 115.182 361.945 115.182ZM361.945 113.977C362.543 113.977 363.036 113.824 363.422 113.517C363.808 113.21 364.094 112.807 364.28 112.307C364.465 111.807 364.558 111.265 364.558 110.682C364.558 110.098 364.465 109.555 364.28 109.051C364.094 108.547 363.808 108.14 363.422 107.83C363.036 107.519 362.543 107.364 361.945 107.364C361.346 107.364 360.854 107.519 360.467 107.83C360.081 108.14 359.795 108.547 359.609 109.051C359.424 109.555 359.331 110.098 359.331 110.682C359.331 111.265 359.424 111.807 359.609 112.307C359.795 112.807 360.081 113.21 360.467 113.517C360.854 113.824 361.346 113.977 361.945 113.977ZM369.287 109.75V115H367.946V106.273H369.241V107.636H369.355C369.56 107.193 369.87 106.837 370.287 106.568C370.704 106.295 371.241 106.159 371.901 106.159C372.491 106.159 373.009 106.28 373.452 106.523C373.895 106.761 374.24 107.125 374.486 107.614C374.732 108.098 374.855 108.712 374.855 109.455V115H373.514V109.545C373.514 108.86 373.336 108.326 372.98 107.943C372.624 107.557 372.135 107.364 371.514 107.364C371.086 107.364 370.704 107.456 370.366 107.642C370.033 107.828 369.77 108.098 369.577 108.455C369.384 108.811 369.287 109.242 369.287 109.75ZM379.874 115.205C379.321 115.205 378.819 115.1 378.368 114.892C377.917 114.68 377.559 114.375 377.294 113.977C377.029 113.576 376.896 113.091 376.896 112.523C376.896 112.023 376.995 111.617 377.192 111.307C377.389 110.992 377.652 110.746 377.982 110.568C378.311 110.39 378.675 110.258 379.072 110.17C379.474 110.08 379.877 110.008 380.283 109.955C380.813 109.886 381.243 109.835 381.572 109.801C381.906 109.763 382.148 109.701 382.3 109.614C382.455 109.527 382.533 109.375 382.533 109.159V109.114C382.533 108.553 382.379 108.117 382.072 107.807C381.769 107.496 381.309 107.341 380.692 107.341C380.052 107.341 379.55 107.481 379.186 107.761C378.822 108.042 378.567 108.341 378.419 108.659L377.146 108.205C377.374 107.674 377.677 107.261 378.055 106.966C378.438 106.667 378.855 106.458 379.305 106.341C379.76 106.22 380.207 106.159 380.646 106.159C380.927 106.159 381.249 106.193 381.612 106.261C381.98 106.326 382.334 106.46 382.675 106.665C383.019 106.869 383.305 107.178 383.533 107.591C383.76 108.004 383.874 108.557 383.874 109.25V115H382.533V113.818H382.464C382.374 114.008 382.222 114.21 382.01 114.426C381.798 114.642 381.516 114.826 381.163 114.977C380.811 115.129 380.381 115.205 379.874 115.205ZM380.078 114C380.608 114 381.055 113.896 381.419 113.688C381.786 113.479 382.063 113.21 382.249 112.881C382.438 112.551 382.533 112.205 382.533 111.841V110.614C382.476 110.682 382.351 110.744 382.158 110.801C381.968 110.854 381.749 110.902 381.499 110.943C381.252 110.981 381.012 111.015 380.777 111.045C380.546 111.072 380.358 111.095 380.214 111.114C379.866 111.159 379.54 111.233 379.237 111.335C378.938 111.434 378.696 111.583 378.51 111.784C378.328 111.981 378.237 112.25 378.237 112.591C378.237 113.057 378.41 113.409 378.754 113.648C379.103 113.883 379.544 114 380.078 114ZM387.662 103.364V115H386.321V103.364H387.662ZM394.232 102.818L390.482 116.75H389.254L393.004 102.818H394.232ZM402.003 108.227L400.798 108.568C400.723 108.367 400.611 108.172 400.463 107.983C400.319 107.79 400.122 107.631 399.872 107.506C399.622 107.381 399.302 107.318 398.912 107.318C398.378 107.318 397.933 107.441 397.577 107.688C397.224 107.93 397.048 108.239 397.048 108.614C397.048 108.947 397.17 109.21 397.412 109.403C397.654 109.597 398.033 109.758 398.548 109.886L399.844 110.205C400.624 110.394 401.205 110.684 401.588 111.074C401.971 111.46 402.162 111.958 402.162 112.568C402.162 113.068 402.018 113.515 401.73 113.909C401.446 114.303 401.048 114.614 400.537 114.841C400.026 115.068 399.431 115.182 398.753 115.182C397.863 115.182 397.126 114.989 396.543 114.602C395.959 114.216 395.59 113.652 395.435 112.909L396.707 112.591C396.829 113.061 397.058 113.413 397.395 113.648C397.736 113.883 398.181 114 398.73 114C399.355 114 399.851 113.867 400.219 113.602C400.59 113.333 400.776 113.011 400.776 112.636C400.776 112.333 400.67 112.08 400.457 111.875C400.245 111.667 399.92 111.511 399.48 111.409L398.026 111.068C397.226 110.879 396.639 110.585 396.264 110.188C395.893 109.786 395.707 109.284 395.707 108.682C395.707 108.189 395.846 107.754 396.122 107.375C396.402 106.996 396.783 106.699 397.264 106.483C397.749 106.267 398.298 106.159 398.912 106.159C399.776 106.159 400.454 106.348 400.946 106.727C401.442 107.106 401.795 107.606 402.003 108.227ZM409.68 111.432V106.273H411.021V115H409.68V113.523H409.589C409.385 113.966 409.067 114.343 408.635 114.653C408.203 114.96 407.658 115.114 406.999 115.114C406.453 115.114 405.968 114.994 405.544 114.756C405.12 114.513 404.786 114.15 404.544 113.665C404.302 113.176 404.18 112.561 404.18 111.818V106.273H405.521V111.727C405.521 112.364 405.699 112.871 406.055 113.25C406.415 113.629 406.874 113.818 407.43 113.818C407.764 113.818 408.103 113.733 408.447 113.562C408.796 113.392 409.088 113.131 409.322 112.778C409.561 112.426 409.68 111.977 409.68 111.432ZM417.023 115.182C416.205 115.182 415.5 114.989 414.909 114.602C414.318 114.216 413.864 113.684 413.545 113.006C413.227 112.328 413.068 111.553 413.068 110.682C413.068 109.795 413.231 109.013 413.557 108.335C413.886 107.653 414.345 107.121 414.932 106.739C415.523 106.352 416.212 106.159 417 106.159C417.614 106.159 418.167 106.273 418.659 106.5C419.152 106.727 419.555 107.045 419.869 107.455C420.184 107.864 420.379 108.341 420.455 108.886H419.114C419.011 108.489 418.784 108.136 418.432 107.83C418.083 107.519 417.614 107.364 417.023 107.364C416.5 107.364 416.042 107.5 415.648 107.773C415.258 108.042 414.953 108.422 414.733 108.915C414.517 109.403 414.409 109.977 414.409 110.636C414.409 111.311 414.515 111.898 414.727 112.398C414.943 112.898 415.246 113.286 415.636 113.562C416.03 113.839 416.492 113.977 417.023 113.977C417.371 113.977 417.688 113.917 417.972 113.795C418.256 113.674 418.496 113.5 418.693 113.273C418.89 113.045 419.03 112.773 419.114 112.455H420.455C420.379 112.97 420.191 113.434 419.892 113.847C419.597 114.256 419.205 114.581 418.716 114.824C418.231 115.062 417.667 115.182 417.023 115.182ZM425.96 115.182C425.142 115.182 424.438 114.989 423.847 114.602C423.256 114.216 422.801 113.684 422.483 113.006C422.165 112.328 422.006 111.553 422.006 110.682C422.006 109.795 422.169 109.013 422.494 108.335C422.824 107.653 423.282 107.121 423.869 106.739C424.46 106.352 425.15 106.159 425.938 106.159C426.551 106.159 427.104 106.273 427.597 106.5C428.089 106.727 428.492 107.045 428.807 107.455C429.121 107.864 429.316 108.341 429.392 108.886H428.051C427.949 108.489 427.722 108.136 427.369 107.83C427.021 107.519 426.551 107.364 425.96 107.364C425.438 107.364 424.979 107.5 424.585 107.773C424.195 108.042 423.89 108.422 423.67 108.915C423.455 109.403 423.347 109.977 423.347 110.636C423.347 111.311 423.453 111.898 423.665 112.398C423.881 112.898 424.184 113.286 424.574 113.562C424.968 113.839 425.43 113.977 425.96 113.977C426.309 113.977 426.625 113.917 426.909 113.795C427.193 113.674 427.434 113.5 427.631 113.273C427.828 113.045 427.968 112.773 428.051 112.455H429.392C429.316 112.97 429.129 113.434 428.83 113.847C428.534 114.256 428.142 114.581 427.653 114.824C427.169 115.062 426.604 115.182 425.96 115.182ZM435.011 115.182C434.17 115.182 433.445 114.996 432.835 114.625C432.229 114.25 431.761 113.727 431.432 113.057C431.106 112.383 430.943 111.598 430.943 110.705C430.943 109.811 431.106 109.023 431.432 108.341C431.761 107.655 432.22 107.121 432.807 106.739C433.398 106.352 434.087 106.159 434.875 106.159C435.33 106.159 435.778 106.235 436.222 106.386C436.665 106.538 437.068 106.784 437.432 107.125C437.795 107.462 438.085 107.909 438.301 108.466C438.517 109.023 438.625 109.708 438.625 110.523V111.091H431.898V109.932H437.261C437.261 109.439 437.163 109 436.966 108.614C436.773 108.227 436.496 107.922 436.136 107.699C435.78 107.475 435.36 107.364 434.875 107.364C434.341 107.364 433.879 107.496 433.489 107.761C433.102 108.023 432.805 108.364 432.597 108.784C432.388 109.205 432.284 109.655 432.284 110.136V110.909C432.284 111.568 432.398 112.127 432.625 112.585C432.856 113.04 433.176 113.386 433.585 113.625C433.994 113.86 434.47 113.977 435.011 113.977C435.364 113.977 435.682 113.928 435.966 113.83C436.254 113.727 436.502 113.576 436.71 113.375C436.919 113.17 437.08 112.917 437.193 112.614L438.489 112.977C438.352 113.417 438.123 113.803 437.801 114.136C437.479 114.466 437.081 114.723 436.608 114.909C436.134 115.091 435.602 115.182 435.011 115.182ZM446.847 108.227L445.642 108.568C445.566 108.367 445.455 108.172 445.307 107.983C445.163 107.79 444.966 107.631 444.716 107.506C444.466 107.381 444.146 107.318 443.756 107.318C443.222 107.318 442.777 107.441 442.42 107.688C442.068 107.93 441.892 108.239 441.892 108.614C441.892 108.947 442.013 109.21 442.256 109.403C442.498 109.597 442.877 109.758 443.392 109.886L444.688 110.205C445.468 110.394 446.049 110.684 446.432 111.074C446.814 111.46 447.006 111.958 447.006 112.568C447.006 113.068 446.862 113.515 446.574 113.909C446.29 114.303 445.892 114.614 445.381 114.841C444.869 115.068 444.275 115.182 443.597 115.182C442.706 115.182 441.97 114.989 441.386 114.602C440.803 114.216 440.434 113.652 440.278 112.909L441.551 112.591C441.672 113.061 441.902 113.413 442.239 113.648C442.58 113.883 443.025 114 443.574 114C444.199 114 444.695 113.867 445.062 113.602C445.434 113.333 445.619 113.011 445.619 112.636C445.619 112.333 445.513 112.08 445.301 111.875C445.089 111.667 444.763 111.511 444.324 111.409L442.869 111.068C442.07 110.879 441.483 110.585 441.108 110.188C440.737 109.786 440.551 109.284 440.551 108.682C440.551 108.189 440.689 107.754 440.966 107.375C441.246 106.996 441.627 106.699 442.108 106.483C442.593 106.267 443.142 106.159 443.756 106.159C444.619 106.159 445.297 106.348 445.79 106.727C446.286 107.106 446.638 107.606 446.847 108.227ZM455.206 108.227L454.001 108.568C453.926 108.367 453.814 108.172 453.666 107.983C453.522 107.79 453.325 107.631 453.075 107.506C452.825 107.381 452.505 107.318 452.115 107.318C451.581 107.318 451.136 107.441 450.78 107.688C450.428 107.93 450.251 108.239 450.251 108.614C450.251 108.947 450.373 109.21 450.615 109.403C450.857 109.597 451.236 109.758 451.751 109.886L453.047 110.205C453.827 110.394 454.409 110.684 454.791 111.074C455.174 111.46 455.365 111.958 455.365 112.568C455.365 113.068 455.221 113.515 454.933 113.909C454.649 114.303 454.251 114.614 453.74 114.841C453.229 115.068 452.634 115.182 451.956 115.182C451.066 115.182 450.329 114.989 449.746 114.602C449.162 114.216 448.793 113.652 448.638 112.909L449.911 112.591C450.032 113.061 450.261 113.413 450.598 113.648C450.939 113.883 451.384 114 451.933 114C452.558 114 453.054 113.867 453.422 113.602C453.793 113.333 453.979 113.011 453.979 112.636C453.979 112.333 453.873 112.08 453.661 111.875C453.448 111.667 453.123 111.511 452.683 111.409L451.229 111.068C450.429 110.879 449.842 110.585 449.467 110.188C449.096 109.786 448.911 109.284 448.911 108.682C448.911 108.189 449.049 107.754 449.325 107.375C449.606 106.996 449.986 106.699 450.467 106.483C450.952 106.267 451.501 106.159 452.115 106.159C452.979 106.159 453.657 106.348 454.149 106.727C454.645 107.106 454.998 107.606 455.206 108.227Z" fill="black"/>
<path d="M218.409 188.227L217.205 188.568C217.129 188.367 217.017 188.172 216.869 187.983C216.725 187.79 216.528 187.631 216.278 187.506C216.028 187.381 215.708 187.318 215.318 187.318C214.784 187.318 214.339 187.441 213.983 187.688C213.631 187.93 213.455 188.239 213.455 188.614C213.455 188.947 213.576 189.21 213.818 189.403C214.061 189.597 214.439 189.758 214.955 189.886L216.25 190.205C217.03 190.394 217.612 190.684 217.994 191.074C218.377 191.46 218.568 191.958 218.568 192.568C218.568 193.068 218.424 193.515 218.136 193.909C217.852 194.303 217.455 194.614 216.943 194.841C216.432 195.068 215.837 195.182 215.159 195.182C214.269 195.182 213.532 194.989 212.949 194.602C212.366 194.216 211.996 193.652 211.841 192.909L213.114 192.591C213.235 193.061 213.464 193.413 213.801 193.648C214.142 193.883 214.587 194 215.136 194C215.761 194 216.258 193.867 216.625 193.602C216.996 193.333 217.182 193.011 217.182 192.636C217.182 192.333 217.076 192.08 216.864 191.875C216.652 191.667 216.326 191.511 215.886 191.409L214.432 191.068C213.633 190.879 213.045 190.585 212.67 190.188C212.299 189.786 212.114 189.284 212.114 188.682C212.114 188.189 212.252 187.754 212.528 187.375C212.809 186.996 213.189 186.699 213.67 186.483C214.155 186.267 214.705 186.159 215.318 186.159C216.182 186.159 216.86 186.348 217.352 186.727C217.848 187.106 218.201 187.606 218.409 188.227ZM221.45 198.273C221.223 198.273 221.02 198.254 220.842 198.216C220.664 198.182 220.541 198.148 220.473 198.114L220.814 196.932C221.14 197.015 221.428 197.045 221.678 197.023C221.928 197 222.149 196.888 222.342 196.688C222.539 196.491 222.719 196.17 222.882 195.727L223.132 195.045L219.905 186.273H221.359L223.768 193.227H223.859L226.268 186.273H227.723L224.018 196.273C223.852 196.723 223.645 197.097 223.399 197.392C223.153 197.691 222.867 197.913 222.541 198.057C222.219 198.201 221.856 198.273 221.45 198.273ZM235.675 188.227L234.47 188.568C234.394 188.367 234.283 188.172 234.135 187.983C233.991 187.79 233.794 187.631 233.544 187.506C233.294 187.381 232.974 187.318 232.584 187.318C232.05 187.318 231.605 187.441 231.249 187.688C230.896 187.93 230.72 188.239 230.72 188.614C230.72 188.947 230.841 189.21 231.084 189.403C231.326 189.597 231.705 189.758 232.22 189.886L233.516 190.205C234.296 190.394 234.877 190.684 235.26 191.074C235.643 191.46 235.834 191.958 235.834 192.568C235.834 193.068 235.69 193.515 235.402 193.909C235.118 194.303 234.72 194.614 234.209 194.841C233.697 195.068 233.103 195.182 232.425 195.182C231.535 195.182 230.798 194.989 230.214 194.602C229.631 194.216 229.262 193.652 229.107 192.909L230.379 192.591C230.5 193.061 230.73 193.413 231.067 193.648C231.408 193.883 231.853 194 232.402 194C233.027 194 233.523 193.867 233.891 193.602C234.262 193.333 234.447 193.011 234.447 192.636C234.447 192.333 234.341 192.08 234.129 191.875C233.917 191.667 233.591 191.511 233.152 191.409L231.697 191.068C230.898 190.879 230.311 190.585 229.936 190.188C229.565 189.786 229.379 189.284 229.379 188.682C229.379 188.189 229.518 187.754 229.794 187.375C230.074 186.996 230.455 186.699 230.936 186.483C231.421 186.267 231.97 186.159 232.584 186.159C233.447 186.159 234.125 186.348 234.618 186.727C235.114 187.106 235.466 187.606 235.675 188.227ZM241.648 186.273V187.409H237.125V186.273H241.648ZM238.443 184.182H239.784V192.5C239.784 192.879 239.839 193.163 239.949 193.352C240.063 193.538 240.206 193.663 240.381 193.727C240.559 193.788 240.746 193.818 240.943 193.818C241.091 193.818 241.212 193.811 241.307 193.795C241.402 193.777 241.477 193.761 241.534 193.75L241.807 194.955C241.716 194.989 241.589 195.023 241.426 195.057C241.263 195.095 241.057 195.114 240.807 195.114C240.428 195.114 240.057 195.032 239.693 194.869C239.333 194.706 239.034 194.458 238.795 194.125C238.561 193.792 238.443 193.371 238.443 192.864V184.182ZM247.23 195.182C246.389 195.182 245.664 194.996 245.054 194.625C244.448 194.25 243.98 193.727 243.651 193.057C243.325 192.383 243.162 191.598 243.162 190.705C243.162 189.811 243.325 189.023 243.651 188.341C243.98 187.655 244.438 187.121 245.026 186.739C245.616 186.352 246.306 186.159 247.094 186.159C247.548 186.159 247.997 186.235 248.44 186.386C248.884 186.538 249.287 186.784 249.651 187.125C250.014 187.462 250.304 187.909 250.52 188.466C250.736 189.023 250.844 189.708 250.844 190.523V191.091H244.116V189.932H249.48C249.48 189.439 249.382 189 249.185 188.614C248.991 188.227 248.715 187.922 248.355 187.699C247.999 187.475 247.579 187.364 247.094 187.364C246.56 187.364 246.098 187.496 245.707 187.761C245.321 188.023 245.024 188.364 244.815 188.784C244.607 189.205 244.503 189.655 244.503 190.136V190.909C244.503 191.568 244.616 192.127 244.844 192.585C245.075 193.04 245.395 193.386 245.804 193.625C246.213 193.86 246.688 193.977 247.23 193.977C247.582 193.977 247.901 193.928 248.185 193.83C248.473 193.727 248.721 193.576 248.929 193.375C249.137 193.17 249.298 192.917 249.412 192.614L250.707 192.977C250.571 193.417 250.342 193.803 250.02 194.136C249.698 194.466 249.3 194.723 248.827 194.909C248.353 195.091 247.821 195.182 247.23 195.182ZM252.884 195V186.273H254.179V187.636H254.293C254.474 187.17 254.768 186.809 255.173 186.551C255.579 186.29 256.065 186.159 256.634 186.159C257.209 186.159 257.688 186.29 258.071 186.551C258.457 186.809 258.759 187.17 258.974 187.636H259.065C259.289 187.186 259.624 186.828 260.071 186.562C260.518 186.294 261.054 186.159 261.679 186.159C262.459 186.159 263.098 186.403 263.594 186.892C264.09 187.377 264.338 188.133 264.338 189.159V195H262.997V189.159C262.997 188.515 262.821 188.055 262.469 187.778C262.116 187.502 261.702 187.364 261.224 187.364C260.611 187.364 260.135 187.549 259.798 187.92C259.461 188.288 259.293 188.754 259.293 189.318V195H257.929V189.023C257.929 188.527 257.768 188.127 257.446 187.824C257.124 187.517 256.709 187.364 256.202 187.364C255.853 187.364 255.527 187.456 255.224 187.642C254.925 187.828 254.683 188.085 254.497 188.415C254.315 188.741 254.224 189.117 254.224 189.545V195H252.884ZM270.903 182.818L267.153 196.75H265.926L269.676 182.818H270.903ZM276.038 195.182C275.22 195.182 274.516 194.989 273.925 194.602C273.334 194.216 272.879 193.684 272.561 193.006C272.243 192.328 272.084 191.553 272.084 190.682C272.084 189.795 272.247 189.013 272.572 188.335C272.902 187.653 273.36 187.121 273.947 186.739C274.538 186.352 275.228 186.159 276.016 186.159C276.629 186.159 277.182 186.273 277.675 186.5C278.167 186.727 278.571 187.045 278.885 187.455C279.199 187.864 279.394 188.341 279.47 188.886H278.129C278.027 188.489 277.8 188.136 277.447 187.83C277.099 187.519 276.629 187.364 276.038 187.364C275.516 187.364 275.057 187.5 274.663 187.773C274.273 188.042 273.968 188.422 273.749 188.915C273.533 189.403 273.425 189.977 273.425 190.636C273.425 191.311 273.531 191.898 273.743 192.398C273.959 192.898 274.262 193.286 274.652 193.562C275.046 193.839 275.508 193.977 276.038 193.977C276.387 193.977 276.703 193.917 276.987 193.795C277.271 193.674 277.512 193.5 277.709 193.273C277.906 193.045 278.046 192.773 278.129 192.455H279.47C279.394 192.97 279.207 193.434 278.908 193.847C278.612 194.256 278.22 194.581 277.732 194.824C277.247 195.062 276.682 195.182 276.038 195.182ZM284.976 195.182C284.188 195.182 283.497 194.994 282.902 194.619C282.311 194.244 281.849 193.72 281.516 193.045C281.186 192.371 281.021 191.583 281.021 190.682C281.021 189.773 281.186 188.979 281.516 188.301C281.849 187.623 282.311 187.097 282.902 186.722C283.497 186.347 284.188 186.159 284.976 186.159C285.764 186.159 286.453 186.347 287.044 186.722C287.639 187.097 288.101 187.623 288.43 188.301C288.764 188.979 288.93 189.773 288.93 190.682C288.93 191.583 288.764 192.371 288.43 193.045C288.101 193.72 287.639 194.244 287.044 194.619C286.453 194.994 285.764 195.182 284.976 195.182ZM284.976 193.977C285.574 193.977 286.067 193.824 286.453 193.517C286.839 193.21 287.125 192.807 287.311 192.307C287.497 191.807 287.589 191.265 287.589 190.682C287.589 190.098 287.497 189.555 287.311 189.051C287.125 188.547 286.839 188.14 286.453 187.83C286.067 187.519 285.574 187.364 284.976 187.364C284.377 187.364 283.885 187.519 283.499 187.83C283.112 188.14 282.826 188.547 282.641 189.051C282.455 189.555 282.362 190.098 282.362 190.682C282.362 191.265 282.455 191.807 282.641 192.307C282.826 192.807 283.112 193.21 283.499 193.517C283.885 193.824 284.377 193.977 284.976 193.977ZM292.318 183.364V195H290.977V183.364H292.318ZM298.32 195.182C297.532 195.182 296.84 194.994 296.246 194.619C295.655 194.244 295.193 193.72 294.859 193.045C294.53 192.371 294.365 191.583 294.365 190.682C294.365 189.773 294.53 188.979 294.859 188.301C295.193 187.623 295.655 187.097 296.246 186.722C296.84 186.347 297.532 186.159 298.32 186.159C299.107 186.159 299.797 186.347 300.388 186.722C300.982 187.097 301.445 187.623 301.774 188.301C302.107 188.979 302.274 189.773 302.274 190.682C302.274 191.583 302.107 192.371 301.774 193.045C301.445 193.72 300.982 194.244 300.388 194.619C299.797 194.994 299.107 195.182 298.32 195.182ZM298.32 193.977C298.918 193.977 299.411 193.824 299.797 193.517C300.183 193.21 300.469 192.807 300.655 192.307C300.84 191.807 300.933 191.265 300.933 190.682C300.933 190.098 300.84 189.555 300.655 189.051C300.469 188.547 300.183 188.14 299.797 187.83C299.411 187.519 298.918 187.364 298.32 187.364C297.721 187.364 297.229 187.519 296.842 187.83C296.456 188.14 296.17 188.547 295.984 189.051C295.799 189.555 295.706 190.098 295.706 190.682C295.706 191.265 295.799 191.807 295.984 192.307C296.17 192.807 296.456 193.21 296.842 193.517C297.229 193.824 297.721 193.977 298.32 193.977ZM304.321 195V186.273H305.616V187.591H305.707C305.866 187.159 306.154 186.809 306.571 186.54C306.988 186.271 307.457 186.136 307.98 186.136C308.079 186.136 308.202 186.138 308.349 186.142C308.497 186.146 308.609 186.152 308.685 186.159V187.523C308.639 187.511 308.535 187.494 308.372 187.472C308.213 187.445 308.045 187.432 307.866 187.432C307.442 187.432 307.063 187.521 306.73 187.699C306.401 187.873 306.139 188.116 305.946 188.426C305.757 188.733 305.662 189.083 305.662 189.477V195H304.321ZM313.841 182.818L310.091 196.75H308.864L312.614 182.818H313.841ZM319.089 195.182C318.249 195.182 317.523 194.996 316.913 194.625C316.307 194.25 315.839 193.727 315.51 193.057C315.184 192.383 315.021 191.598 315.021 190.705C315.021 189.811 315.184 189.023 315.51 188.341C315.839 187.655 316.298 187.121 316.885 186.739C317.476 186.352 318.165 186.159 318.953 186.159C319.408 186.159 319.857 186.235 320.3 186.386C320.743 186.538 321.146 186.784 321.51 187.125C321.874 187.462 322.163 187.909 322.379 188.466C322.595 189.023 322.703 189.708 322.703 190.523V191.091H315.976V189.932H321.339C321.339 189.439 321.241 189 321.044 188.614C320.851 188.227 320.574 187.922 320.214 187.699C319.858 187.475 319.438 187.364 318.953 187.364C318.419 187.364 317.957 187.496 317.567 187.761C317.18 188.023 316.883 188.364 316.675 188.784C316.466 189.205 316.362 189.655 316.362 190.136V190.909C316.362 191.568 316.476 192.127 316.703 192.585C316.934 193.04 317.254 193.386 317.663 193.625C318.072 193.86 318.548 193.977 319.089 193.977C319.442 193.977 319.76 193.928 320.044 193.83C320.332 193.727 320.58 193.576 320.788 193.375C320.997 193.17 321.158 192.917 321.271 192.614L322.567 192.977C322.43 193.417 322.201 193.803 321.879 194.136C321.557 194.466 321.16 194.723 320.686 194.909C320.213 195.091 319.68 195.182 319.089 195.182ZM326.084 183.364V195H324.743V183.364H326.084ZM332.199 195.182C331.358 195.182 330.633 194.996 330.023 194.625C329.417 194.25 328.949 193.727 328.619 193.057C328.294 192.383 328.131 191.598 328.131 190.705C328.131 189.811 328.294 189.023 328.619 188.341C328.949 187.655 329.407 187.121 329.994 186.739C330.585 186.352 331.275 186.159 332.062 186.159C332.517 186.159 332.966 186.235 333.409 186.386C333.852 186.538 334.256 186.784 334.619 187.125C334.983 187.462 335.273 187.909 335.489 188.466C335.705 189.023 335.812 189.708 335.812 190.523V191.091H329.085V189.932H334.449C334.449 189.439 334.35 189 334.153 188.614C333.96 188.227 333.684 187.922 333.324 187.699C332.968 187.475 332.547 187.364 332.062 187.364C331.528 187.364 331.066 187.496 330.676 187.761C330.29 188.023 329.992 188.364 329.784 188.784C329.576 189.205 329.472 189.655 329.472 190.136V190.909C329.472 191.568 329.585 192.127 329.812 192.585C330.044 193.04 330.364 193.386 330.773 193.625C331.182 193.86 331.657 193.977 332.199 193.977C332.551 193.977 332.869 193.928 333.153 193.83C333.441 193.727 333.689 193.576 333.898 193.375C334.106 193.17 334.267 192.917 334.381 192.614L335.676 192.977C335.54 193.417 335.311 193.803 334.989 194.136C334.667 194.466 334.269 194.723 333.795 194.909C333.322 195.091 332.79 195.182 332.199 195.182ZM344.723 186.273L341.496 195H340.132L336.905 186.273H338.359L340.768 193.227H340.859L343.268 186.273H344.723ZM348.795 195.205C348.242 195.205 347.741 195.1 347.29 194.892C346.839 194.68 346.481 194.375 346.216 193.977C345.951 193.576 345.818 193.091 345.818 192.523C345.818 192.023 345.917 191.617 346.114 191.307C346.311 190.992 346.574 190.746 346.903 190.568C347.233 190.39 347.597 190.258 347.994 190.17C348.396 190.08 348.799 190.008 349.205 189.955C349.735 189.886 350.165 189.835 350.494 189.801C350.828 189.763 351.07 189.701 351.222 189.614C351.377 189.527 351.455 189.375 351.455 189.159V189.114C351.455 188.553 351.301 188.117 350.994 187.807C350.691 187.496 350.231 187.341 349.614 187.341C348.973 187.341 348.472 187.481 348.108 187.761C347.744 188.042 347.489 188.341 347.341 188.659L346.068 188.205C346.295 187.674 346.598 187.261 346.977 186.966C347.36 186.667 347.777 186.458 348.227 186.341C348.682 186.22 349.129 186.159 349.568 186.159C349.848 186.159 350.17 186.193 350.534 186.261C350.902 186.326 351.256 186.46 351.597 186.665C351.941 186.869 352.227 187.178 352.455 187.591C352.682 188.004 352.795 188.557 352.795 189.25V195H351.455V193.818H351.386C351.295 194.008 351.144 194.21 350.932 194.426C350.72 194.642 350.438 194.826 350.085 194.977C349.733 195.129 349.303 195.205 348.795 195.205ZM349 194C349.53 194 349.977 193.896 350.341 193.688C350.708 193.479 350.985 193.21 351.17 192.881C351.36 192.551 351.455 192.205 351.455 191.841V190.614C351.398 190.682 351.273 190.744 351.08 190.801C350.89 190.854 350.67 190.902 350.42 190.943C350.174 190.981 349.934 191.015 349.699 191.045C349.468 191.072 349.28 191.095 349.136 191.114C348.788 191.159 348.462 191.233 348.159 191.335C347.86 191.434 347.617 191.583 347.432 191.784C347.25 191.981 347.159 192.25 347.159 192.591C347.159 193.057 347.331 193.409 347.676 193.648C348.025 193.883 348.466 194 349 194ZM359.038 186.273V187.409H354.516V186.273H359.038ZM355.834 184.182H357.175V192.5C357.175 192.879 357.23 193.163 357.339 193.352C357.453 193.538 357.597 193.663 357.771 193.727C357.949 193.788 358.137 193.818 358.334 193.818C358.482 193.818 358.603 193.811 358.697 193.795C358.792 193.777 358.868 193.761 358.925 193.75L359.197 194.955C359.107 194.989 358.98 195.023 358.817 195.057C358.654 195.095 358.447 195.114 358.197 195.114C357.819 195.114 357.447 195.032 357.084 194.869C356.724 194.706 356.425 194.458 356.186 194.125C355.951 193.792 355.834 193.371 355.834 192.864V184.182ZM361.055 195V186.273H362.396V195H361.055ZM361.737 184.818C361.476 184.818 361.25 184.729 361.061 184.551C360.875 184.373 360.783 184.159 360.783 183.909C360.783 183.659 360.875 183.445 361.061 183.267C361.25 183.089 361.476 183 361.737 183C361.999 183 362.222 183.089 362.408 183.267C362.597 183.445 362.692 183.659 362.692 183.909C362.692 184.159 362.597 184.373 362.408 184.551C362.222 184.729 361.999 184.818 361.737 184.818ZM368.398 195.182C367.61 195.182 366.919 194.994 366.324 194.619C365.733 194.244 365.271 193.72 364.938 193.045C364.608 192.371 364.443 191.583 364.443 190.682C364.443 189.773 364.608 188.979 364.938 188.301C365.271 187.623 365.733 187.097 366.324 186.722C366.919 186.347 367.61 186.159 368.398 186.159C369.186 186.159 369.875 186.347 370.466 186.722C371.061 187.097 371.523 187.623 371.852 188.301C372.186 188.979 372.352 189.773 372.352 190.682C372.352 191.583 372.186 192.371 371.852 193.045C371.523 193.72 371.061 194.244 370.466 194.619C369.875 194.994 369.186 195.182 368.398 195.182ZM368.398 193.977C368.996 193.977 369.489 193.824 369.875 193.517C370.261 193.21 370.547 192.807 370.733 192.307C370.919 191.807 371.011 191.265 371.011 190.682C371.011 190.098 370.919 189.555 370.733 189.051C370.547 188.547 370.261 188.14 369.875 187.83C369.489 187.519 368.996 187.364 368.398 187.364C367.799 187.364 367.307 187.519 366.92 187.83C366.534 188.14 366.248 188.547 366.062 189.051C365.877 189.555 365.784 190.098 365.784 190.682C365.784 191.265 365.877 191.807 366.062 192.307C366.248 192.807 366.534 193.21 366.92 193.517C367.307 193.824 367.799 193.977 368.398 193.977ZM375.74 189.75V195H374.399V186.273H375.695V187.636H375.808C376.013 187.193 376.323 186.837 376.74 186.568C377.157 186.295 377.695 186.159 378.354 186.159C378.945 186.159 379.462 186.28 379.905 186.523C380.348 186.761 380.693 187.125 380.939 187.614C381.185 188.098 381.308 188.712 381.308 189.455V195H379.967V189.545C379.967 188.86 379.789 188.326 379.433 187.943C379.077 187.557 378.589 187.364 377.967 187.364C377.539 187.364 377.157 187.456 376.82 187.642C376.486 187.828 376.223 188.098 376.03 188.455C375.837 188.811 375.74 189.242 375.74 189.75ZM388.759 189.386V190.636H383.668V189.386H388.759ZM391.3 195V183.364H392.641V187.659H392.754C392.853 187.508 392.989 187.314 393.163 187.08C393.341 186.841 393.595 186.629 393.925 186.443C394.258 186.254 394.709 186.159 395.277 186.159C396.012 186.159 396.66 186.343 397.22 186.71C397.781 187.078 398.218 187.598 398.533 188.273C398.847 188.947 399.004 189.742 399.004 190.659C399.004 191.583 398.847 192.384 398.533 193.062C398.218 193.737 397.783 194.259 397.226 194.631C396.669 194.998 396.027 195.182 395.3 195.182C394.739 195.182 394.29 195.089 393.953 194.903C393.616 194.714 393.357 194.5 393.175 194.261C392.993 194.019 392.853 193.818 392.754 193.659H392.595V195H391.3ZM392.618 190.636C392.618 191.295 392.714 191.877 392.908 192.381C393.101 192.881 393.383 193.273 393.754 193.557C394.125 193.837 394.58 193.977 395.118 193.977C395.679 193.977 396.146 193.83 396.521 193.534C396.9 193.235 397.184 192.833 397.374 192.33C397.567 191.822 397.663 191.258 397.663 190.636C397.663 190.023 397.569 189.47 397.379 188.977C397.194 188.481 396.911 188.089 396.533 187.801C396.158 187.509 395.686 187.364 395.118 187.364C394.572 187.364 394.114 187.502 393.743 187.778C393.372 188.051 393.091 188.434 392.902 188.926C392.713 189.415 392.618 189.985 392.618 190.636ZM403.624 195.205C403.071 195.205 402.569 195.1 402.118 194.892C401.667 194.68 401.309 194.375 401.044 193.977C400.779 193.576 400.646 193.091 400.646 192.523C400.646 192.023 400.745 191.617 400.942 191.307C401.139 190.992 401.402 190.746 401.732 190.568C402.061 190.39 402.425 190.258 402.822 190.17C403.224 190.08 403.627 190.008 404.033 189.955C404.563 189.886 404.993 189.835 405.322 189.801C405.656 189.763 405.898 189.701 406.05 189.614C406.205 189.527 406.283 189.375 406.283 189.159V189.114C406.283 188.553 406.129 188.117 405.822 187.807C405.519 187.496 405.059 187.341 404.442 187.341C403.802 187.341 403.3 187.481 402.936 187.761C402.572 188.042 402.317 188.341 402.169 188.659L400.896 188.205C401.124 187.674 401.427 187.261 401.805 186.966C402.188 186.667 402.605 186.458 403.055 186.341C403.51 186.22 403.957 186.159 404.396 186.159C404.677 186.159 404.999 186.193 405.362 186.261C405.73 186.326 406.084 186.46 406.425 186.665C406.769 186.869 407.055 187.178 407.283 187.591C407.51 188.004 407.624 188.557 407.624 189.25V195H406.283V193.818H406.214C406.124 194.008 405.972 194.21 405.76 194.426C405.548 194.642 405.266 194.826 404.913 194.977C404.561 195.129 404.131 195.205 403.624 195.205ZM403.828 194C404.358 194 404.805 193.896 405.169 193.688C405.536 193.479 405.813 193.21 405.999 192.881C406.188 192.551 406.283 192.205 406.283 191.841V190.614C406.226 190.682 406.101 190.744 405.908 190.801C405.718 190.854 405.499 190.902 405.249 190.943C405.002 190.981 404.762 191.015 404.527 191.045C404.296 191.072 404.108 191.095 403.964 191.114C403.616 191.159 403.29 191.233 402.987 191.335C402.688 191.434 402.446 191.583 402.26 191.784C402.078 191.981 401.987 192.25 401.987 192.591C401.987 193.057 402.16 193.409 402.504 193.648C402.853 193.883 403.294 194 403.828 194ZM416.253 188.227L415.048 188.568C414.973 188.367 414.861 188.172 414.713 187.983C414.569 187.79 414.372 187.631 414.122 187.506C413.872 187.381 413.552 187.318 413.162 187.318C412.628 187.318 412.183 187.441 411.827 187.688C411.474 187.93 411.298 188.239 411.298 188.614C411.298 188.947 411.42 189.21 411.662 189.403C411.904 189.597 412.283 189.758 412.798 189.886L414.094 190.205C414.874 190.394 415.455 190.684 415.838 191.074C416.221 191.46 416.412 191.958 416.412 192.568C416.412 193.068 416.268 193.515 415.98 193.909C415.696 194.303 415.298 194.614 414.787 194.841C414.276 195.068 413.681 195.182 413.003 195.182C412.113 195.182 411.376 194.989 410.793 194.602C410.209 194.216 409.84 193.652 409.685 192.909L410.957 192.591C411.079 193.061 411.308 193.413 411.645 193.648C411.986 193.883 412.431 194 412.98 194C413.605 194 414.101 193.867 414.469 193.602C414.84 193.333 415.026 193.011 415.026 192.636C415.026 192.333 414.92 192.08 414.707 191.875C414.495 191.667 414.17 191.511 413.73 191.409L412.276 191.068C411.476 190.879 410.889 190.585 410.514 190.188C410.143 189.786 409.957 189.284 409.957 188.682C409.957 188.189 410.096 187.754 410.372 187.375C410.652 186.996 411.033 186.699 411.514 186.483C411.999 186.267 412.548 186.159 413.162 186.159C414.026 186.159 414.704 186.348 415.196 186.727C415.692 187.106 416.045 187.606 416.253 188.227ZM422.089 195.182C421.249 195.182 420.523 194.996 419.913 194.625C419.307 194.25 418.839 193.727 418.51 193.057C418.184 192.383 418.021 191.598 418.021 190.705C418.021 189.811 418.184 189.023 418.51 188.341C418.839 187.655 419.298 187.121 419.885 186.739C420.476 186.352 421.165 186.159 421.953 186.159C422.408 186.159 422.857 186.235 423.3 186.386C423.743 186.538 424.146 186.784 424.51 187.125C424.874 187.462 425.163 187.909 425.379 188.466C425.595 189.023 425.703 189.708 425.703 190.523V191.091H418.976V189.932H424.339C424.339 189.439 424.241 189 424.044 188.614C423.851 188.227 423.574 187.922 423.214 187.699C422.858 187.475 422.438 187.364 421.953 187.364C421.419 187.364 420.957 187.496 420.567 187.761C420.18 188.023 419.883 188.364 419.675 188.784C419.466 189.205 419.362 189.655 419.362 190.136V190.909C419.362 191.568 419.476 192.127 419.703 192.585C419.934 193.04 420.254 193.386 420.663 193.625C421.072 193.86 421.548 193.977 422.089 193.977C422.442 193.977 422.76 193.928 423.044 193.83C423.332 193.727 423.58 193.576 423.788 193.375C423.997 193.17 424.158 192.917 424.271 192.614L425.567 192.977C425.43 193.417 425.201 193.803 424.879 194.136C424.557 194.466 424.16 194.723 423.686 194.909C423.213 195.091 422.68 195.182 422.089 195.182ZM431.857 182.818L428.107 196.75H426.879L430.629 182.818H431.857ZM433.628 195V183.364H434.969V187.659H435.082C435.181 187.508 435.317 187.314 435.491 187.08C435.67 186.841 435.923 186.629 436.253 186.443C436.586 186.254 437.037 186.159 437.605 186.159C438.34 186.159 438.988 186.343 439.548 186.71C440.109 187.078 440.546 187.598 440.861 188.273C441.175 188.947 441.332 189.742 441.332 190.659C441.332 191.583 441.175 192.384 440.861 193.062C440.546 193.737 440.111 194.259 439.554 194.631C438.997 194.998 438.355 195.182 437.628 195.182C437.067 195.182 436.618 195.089 436.281 194.903C435.944 194.714 435.685 194.5 435.503 194.261C435.321 194.019 435.181 193.818 435.082 193.659H434.923V195H433.628ZM434.946 190.636C434.946 191.295 435.043 191.877 435.236 192.381C435.429 192.881 435.711 193.273 436.082 193.557C436.454 193.837 436.908 193.977 437.446 193.977C438.007 193.977 438.474 193.83 438.849 193.534C439.228 193.235 439.512 192.833 439.702 192.33C439.895 191.822 439.991 191.258 439.991 190.636C439.991 190.023 439.897 189.47 439.707 188.977C439.522 188.481 439.24 188.089 438.861 187.801C438.486 187.509 438.014 187.364 437.446 187.364C436.901 187.364 436.442 187.502 436.071 187.778C435.7 188.051 435.42 188.434 435.23 188.926C435.041 189.415 434.946 189.985 434.946 190.636ZM445.952 195.205C445.399 195.205 444.897 195.1 444.446 194.892C443.995 194.68 443.637 194.375 443.372 193.977C443.107 193.576 442.974 193.091 442.974 192.523C442.974 192.023 443.073 191.617 443.27 191.307C443.467 190.992 443.73 190.746 444.06 190.568C444.389 190.39 444.753 190.258 445.151 190.17C445.552 190.08 445.955 190.008 446.361 189.955C446.891 189.886 447.321 189.835 447.651 189.801C447.984 189.763 448.226 189.701 448.378 189.614C448.533 189.527 448.611 189.375 448.611 189.159V189.114C448.611 188.553 448.457 188.117 448.151 187.807C447.848 187.496 447.387 187.341 446.77 187.341C446.13 187.341 445.628 187.481 445.264 187.761C444.901 188.042 444.645 188.341 444.497 188.659L443.224 188.205C443.452 187.674 443.755 187.261 444.134 186.966C444.516 186.667 444.933 186.458 445.384 186.341C445.838 186.22 446.285 186.159 446.724 186.159C447.005 186.159 447.327 186.193 447.69 186.261C448.058 186.326 448.412 186.46 448.753 186.665C449.098 186.869 449.384 187.178 449.611 187.591C449.838 188.004 449.952 188.557 449.952 189.25V195H448.611V193.818H448.543C448.452 194.008 448.3 194.21 448.088 194.426C447.876 194.642 447.594 194.826 447.241 194.977C446.889 195.129 446.459 195.205 445.952 195.205ZM446.156 194C446.687 194 447.134 193.896 447.497 193.688C447.865 193.479 448.141 193.21 448.327 192.881C448.516 192.551 448.611 192.205 448.611 191.841V190.614C448.554 190.682 448.429 190.744 448.236 190.801C448.046 190.854 447.827 190.902 447.577 190.943C447.33 190.981 447.09 191.015 446.855 191.045C446.624 191.072 446.437 191.095 446.293 191.114C445.944 191.159 445.618 191.233 445.315 191.335C445.016 191.434 444.774 191.583 444.588 191.784C444.406 191.981 444.315 192.25 444.315 192.591C444.315 193.057 444.488 193.409 444.832 193.648C445.181 193.883 445.622 194 446.156 194ZM455.945 195.182C455.126 195.182 454.422 194.989 453.831 194.602C453.24 194.216 452.786 193.684 452.467 193.006C452.149 192.328 451.99 191.553 451.99 190.682C451.99 189.795 452.153 189.013 452.479 188.335C452.808 187.653 453.267 187.121 453.854 186.739C454.445 186.352 455.134 186.159 455.922 186.159C456.536 186.159 457.089 186.273 457.581 186.5C458.073 186.727 458.477 187.045 458.791 187.455C459.106 187.864 459.301 188.341 459.376 188.886H458.036C457.933 188.489 457.706 188.136 457.354 187.83C457.005 187.519 456.536 187.364 455.945 187.364C455.422 187.364 454.964 187.5 454.57 187.773C454.179 188.042 453.875 188.422 453.655 188.915C453.439 189.403 453.331 189.977 453.331 190.636C453.331 191.311 453.437 191.898 453.649 192.398C453.865 192.898 454.168 193.286 454.558 193.562C454.952 193.839 455.414 193.977 455.945 193.977C456.293 193.977 456.609 193.917 456.893 193.795C457.178 193.674 457.418 193.5 457.615 193.273C457.812 193.045 457.952 192.773 458.036 192.455H459.376C459.301 192.97 459.113 193.434 458.814 193.847C458.518 194.256 458.126 194.581 457.638 194.824C457.153 195.062 456.589 195.182 455.945 195.182ZM462.587 191.818L462.564 190.159H462.837L466.655 186.273H468.314L464.246 190.386H464.132L462.587 191.818ZM461.337 195V183.364H462.678V195H461.337ZM466.882 195L463.473 190.682L464.428 189.75L468.587 195H466.882ZM473.203 198.455C472.555 198.455 471.999 198.371 471.533 198.205C471.067 198.042 470.679 197.826 470.368 197.557C470.061 197.292 469.817 197.008 469.635 196.705L470.703 195.955C470.824 196.114 470.978 196.295 471.163 196.5C471.349 196.708 471.603 196.888 471.925 197.04C472.25 197.195 472.677 197.273 473.203 197.273C473.908 197.273 474.489 197.102 474.947 196.761C475.406 196.42 475.635 195.886 475.635 195.159V193.386H475.521C475.423 193.545 475.283 193.742 475.101 193.977C474.923 194.208 474.665 194.415 474.328 194.597C473.995 194.775 473.544 194.864 472.976 194.864C472.271 194.864 471.639 194.697 471.078 194.364C470.521 194.03 470.08 193.545 469.754 192.909C469.432 192.273 469.271 191.5 469.271 190.591C469.271 189.697 469.429 188.919 469.743 188.256C470.057 187.589 470.495 187.074 471.055 186.71C471.616 186.343 472.264 186.159 472.999 186.159C473.567 186.159 474.018 186.254 474.351 186.443C474.688 186.629 474.946 186.841 475.124 187.08C475.305 187.314 475.446 187.508 475.544 187.659H475.68V186.273H476.976V195.25C476.976 196 476.805 196.61 476.464 197.08C476.127 197.553 475.673 197.9 475.101 198.119C474.533 198.343 473.9 198.455 473.203 198.455ZM473.158 193.659C473.696 193.659 474.15 193.536 474.521 193.29C474.893 193.044 475.175 192.689 475.368 192.227C475.561 191.765 475.658 191.212 475.658 190.568C475.658 189.939 475.563 189.384 475.374 188.903C475.184 188.422 474.904 188.045 474.533 187.773C474.161 187.5 473.703 187.364 473.158 187.364C472.589 187.364 472.116 187.508 471.737 187.795C471.362 188.083 471.08 188.47 470.891 188.955C470.705 189.439 470.612 189.977 470.612 190.568C470.612 191.174 470.707 191.71 470.896 192.176C471.089 192.638 471.374 193.002 471.749 193.267C472.127 193.528 472.597 193.659 473.158 193.659ZM479.43 195V186.273H480.726V187.591H480.817C480.976 187.159 481.264 186.809 481.68 186.54C482.097 186.271 482.567 186.136 483.089 186.136C483.188 186.136 483.311 186.138 483.459 186.142C483.607 186.146 483.718 186.152 483.794 186.159V187.523C483.749 187.511 483.644 187.494 483.482 187.472C483.322 187.445 483.154 187.432 482.976 187.432C482.552 187.432 482.173 187.521 481.839 187.699C481.51 187.873 481.249 188.116 481.055 188.426C480.866 188.733 480.771 189.083 480.771 189.477V195H479.43ZM488.663 195.182C487.875 195.182 487.184 194.994 486.589 194.619C485.999 194.244 485.536 193.72 485.203 193.045C484.874 192.371 484.709 191.583 484.709 190.682C484.709 189.773 484.874 188.979 485.203 188.301C485.536 187.623 485.999 187.097 486.589 186.722C487.184 186.347 487.875 186.159 488.663 186.159C489.451 186.159 490.141 186.347 490.732 186.722C491.326 187.097 491.788 187.623 492.118 188.301C492.451 188.979 492.618 189.773 492.618 190.682C492.618 191.583 492.451 192.371 492.118 193.045C491.788 193.72 491.326 194.244 490.732 194.619C490.141 194.994 489.451 195.182 488.663 195.182ZM488.663 193.977C489.262 193.977 489.754 193.824 490.141 193.517C490.527 193.21 490.813 192.807 490.999 192.307C491.184 191.807 491.277 191.265 491.277 190.682C491.277 190.098 491.184 189.555 490.999 189.051C490.813 188.547 490.527 188.14 490.141 187.83C489.754 187.519 489.262 187.364 488.663 187.364C488.065 187.364 487.572 187.519 487.186 187.83C486.8 188.14 486.514 188.547 486.328 189.051C486.143 189.555 486.05 190.098 486.05 190.682C486.05 191.265 486.143 191.807 486.328 192.307C486.514 192.807 486.8 193.21 487.186 193.517C487.572 193.824 488.065 193.977 488.663 193.977ZM500.165 191.432V186.273H501.506V195H500.165V193.523H500.074C499.869 193.966 499.551 194.343 499.119 194.653C498.688 194.96 498.142 195.114 497.483 195.114C496.938 195.114 496.453 194.994 496.028 194.756C495.604 194.513 495.271 194.15 495.028 193.665C494.786 193.176 494.665 192.561 494.665 191.818V186.273H496.006V191.727C496.006 192.364 496.184 192.871 496.54 193.25C496.9 193.629 497.358 193.818 497.915 193.818C498.248 193.818 498.587 193.733 498.932 193.562C499.28 193.392 499.572 193.131 499.807 192.778C500.045 192.426 500.165 191.977 500.165 191.432ZM505.303 189.75V195H503.962V186.273H505.257V187.636H505.371C505.575 187.193 505.886 186.837 506.303 186.568C506.719 186.295 507.257 186.159 507.916 186.159C508.507 186.159 509.024 186.28 509.467 186.523C509.911 186.761 510.255 187.125 510.501 187.614C510.748 188.098 510.871 188.712 510.871 189.455V195H509.53V189.545C509.53 188.86 509.352 188.326 508.996 187.943C508.64 187.557 508.151 187.364 507.53 187.364C507.102 187.364 506.719 187.456 506.382 187.642C506.049 187.828 505.786 188.098 505.592 188.455C505.399 188.811 505.303 189.242 505.303 189.75ZM516.616 195.182C515.889 195.182 515.247 194.998 514.69 194.631C514.134 194.259 513.698 193.737 513.384 193.062C513.069 192.384 512.912 191.583 512.912 190.659C512.912 189.742 513.069 188.947 513.384 188.273C513.698 187.598 514.135 187.078 514.696 186.71C515.257 186.343 515.904 186.159 516.639 186.159C517.207 186.159 517.656 186.254 517.986 186.443C518.319 186.629 518.573 186.841 518.747 187.08C518.925 187.314 519.063 187.508 519.162 187.659H519.276V183.364H520.616V195H519.321V193.659H519.162C519.063 193.818 518.923 194.019 518.741 194.261C518.56 194.5 518.3 194.714 517.963 194.903C517.626 195.089 517.177 195.182 516.616 195.182ZM516.798 193.977C517.336 193.977 517.791 193.837 518.162 193.557C518.533 193.273 518.815 192.881 519.009 192.381C519.202 191.877 519.298 191.295 519.298 190.636C519.298 189.985 519.204 189.415 519.014 188.926C518.825 188.434 518.545 188.051 518.173 187.778C517.802 187.502 517.344 187.364 516.798 187.364C516.23 187.364 515.757 187.509 515.378 187.801C515.003 188.089 514.721 188.481 514.531 188.977C514.346 189.47 514.253 190.023 514.253 190.636C514.253 191.258 514.348 191.822 514.537 192.33C514.73 192.833 515.014 193.235 515.389 193.534C515.768 193.83 516.238 193.977 516.798 193.977Z" fill="black"/>
</svg>
