<svg width="553" height="311" viewBox="0 0 553 311" fill="none" xmlns="http://www.w3.org/2000/svg">
<rect x="48" y="103" width="121.5" height="81" rx="40.5" fill="#078337"/>
<rect x="93.5625" y="108.062" width="70.875" height="70.875" rx="35.4375" fill="#F3F6FA"/>
<path d="M145.875 130.844L122.672 154.047L112.125 143.5" stroke="#078337" stroke-width="4.21875" stroke-linecap="round" stroke-linejoin="round"/>
<path d="M69.6667 172C69.6667 169.054 72.0545 166.667 75 166.667C77.9455 166.667 80.3333 169.054 80.3333 172C80.3333 174.946 77.9455 177.333 75 177.333C72.0545 177.333 69.6667 174.946 69.6667 172ZM75 172H76V208H75H74V172H75Z" fill="#020A17"/>
<path d="M123.667 115C123.667 117.946 126.054 120.333 129 120.333C131.946 120.333 134.333 117.946 134.333 115C134.333 112.054 131.946 109.667 129 109.667C126.054 109.667 123.667 112.054 123.667 115ZM181 82C181.552 82 182 81.5523 182 81C182 80.4477 181.552 80 181 80V82ZM129 81V80H128V81H129ZM129 115H130V81H129H128V115H129ZM129 81V82H181V81V80H129V81Z" fill="#020A17"/>
<rect x="198" y="59" width="331" height="44" rx="22" fill="#020A17"/>
<path d="M219.261 79.5341L217.756 79.9602C217.661 79.7093 217.521 79.4654 217.337 79.2287C217.157 78.9872 216.911 78.7884 216.598 78.6321C216.286 78.4759 215.885 78.3977 215.398 78.3977C214.73 78.3977 214.174 78.5516 213.729 78.8594C213.288 79.1624 213.068 79.5483 213.068 80.017C213.068 80.4337 213.22 80.7628 213.523 81.0043C213.826 81.2457 214.299 81.447 214.943 81.608L216.562 82.0057C217.538 82.2424 218.265 82.6046 218.743 83.0923C219.221 83.5753 219.46 84.1979 219.46 84.9602C219.46 85.5852 219.28 86.1439 218.92 86.6364C218.565 87.1288 218.068 87.517 217.429 87.8011C216.79 88.0852 216.046 88.2273 215.199 88.2273C214.086 88.2273 213.165 87.9858 212.436 87.5028C211.707 87.0199 211.245 86.3144 211.051 85.3864L212.642 84.9886C212.794 85.5758 213.08 86.0161 213.501 86.3097C213.928 86.6032 214.484 86.75 215.17 86.75C215.952 86.75 216.572 86.5843 217.031 86.2528C217.495 85.9167 217.727 85.5142 217.727 85.0455C217.727 84.6667 217.595 84.3494 217.33 84.0938C217.064 83.8333 216.657 83.6392 216.108 83.5114L214.29 83.0852C213.291 82.8485 212.557 82.4815 212.088 81.9844C211.624 81.4825 211.392 80.8551 211.392 80.1023C211.392 79.4867 211.565 78.9422 211.911 78.4688C212.261 77.9953 212.737 77.6236 213.338 77.3537C213.944 77.0838 214.631 76.9489 215.398 76.9489C216.477 76.9489 217.325 77.1856 217.94 77.6591C218.561 78.1326 219.001 78.7576 219.261 79.5341ZM223.063 92.0909C222.779 92.0909 222.525 92.0672 222.303 92.0199C222.08 91.9773 221.926 91.9347 221.841 91.892L222.267 90.4148C222.675 90.5189 223.034 90.5568 223.347 90.5284C223.659 90.5 223.936 90.3603 224.178 90.1094C224.424 89.8632 224.649 89.4631 224.853 88.9091L225.165 88.0568L221.131 77.0909H222.949L225.961 85.7841H226.074L229.086 77.0909H230.904L226.273 89.5909C226.065 90.1544 225.807 90.6207 225.499 90.9901C225.191 91.3641 224.834 91.6411 224.426 91.821C224.024 92.0009 223.569 92.0909 223.063 92.0909ZM240.843 79.5341L239.338 79.9602C239.243 79.7093 239.103 79.4654 238.919 79.2287C238.739 78.9872 238.493 78.7884 238.18 78.6321C237.868 78.4759 237.467 78.3977 236.98 78.3977C236.312 78.3977 235.756 78.5516 235.311 78.8594C234.87 79.1624 234.65 79.5483 234.65 80.017C234.65 80.4337 234.802 80.7628 235.105 81.0043C235.408 81.2457 235.881 81.447 236.525 81.608L238.145 82.0057C239.12 82.2424 239.847 82.6046 240.325 83.0923C240.803 83.5753 241.042 84.1979 241.042 84.9602C241.042 85.5852 240.862 86.1439 240.502 86.6364C240.147 87.1288 239.65 87.517 239.011 87.8011C238.372 88.0852 237.628 88.2273 236.781 88.2273C235.668 88.2273 234.747 87.9858 234.018 87.5028C233.289 87.0199 232.827 86.3144 232.633 85.3864L234.224 84.9886C234.376 85.5758 234.662 86.0161 235.083 86.3097C235.51 86.6032 236.066 86.75 236.752 86.75C237.534 86.75 238.154 86.5843 238.613 86.2528C239.077 85.9167 239.309 85.5142 239.309 85.0455C239.309 84.6667 239.177 84.3494 238.912 84.0938C238.646 83.8333 238.239 83.6392 237.69 83.5114L235.872 83.0852C234.873 82.8485 234.139 82.4815 233.67 81.9844C233.206 81.4825 232.974 80.8551 232.974 80.1023C232.974 79.4867 233.147 78.9422 233.493 78.4688C233.843 77.9953 234.319 77.6236 234.92 77.3537C235.526 77.0838 236.213 76.9489 236.98 76.9489C238.059 76.9489 238.907 77.1856 239.522 77.6591C240.143 78.1326 240.583 78.7576 240.843 79.5341ZM248.31 77.0909V78.5114H242.656V77.0909H248.31ZM244.304 74.4773H245.98V84.875C245.98 85.3485 246.049 85.7036 246.186 85.9403C246.328 86.1723 246.508 86.3286 246.726 86.4091C246.948 86.4848 247.183 86.5227 247.429 86.5227C247.614 86.5227 247.765 86.5133 247.884 86.4943C248.002 86.4706 248.097 86.4517 248.168 86.4375L248.509 87.9432C248.395 87.9858 248.236 88.0284 248.033 88.071C247.829 88.1184 247.571 88.142 247.259 88.142C246.785 88.142 246.321 88.0402 245.866 87.8366C245.417 87.633 245.043 87.3229 244.744 86.9062C244.451 86.4896 244.304 85.964 244.304 85.3295V74.4773ZM255.288 88.2273C254.237 88.2273 253.33 87.9953 252.567 87.5312C251.81 87.0625 251.225 86.4091 250.813 85.571C250.406 84.7282 250.202 83.7481 250.202 82.6307C250.202 81.5133 250.406 80.5284 250.813 79.6761C251.225 78.8191 251.798 78.1515 252.532 77.6733C253.271 77.1903 254.132 76.9489 255.117 76.9489C255.685 76.9489 256.246 77.0436 256.8 77.233C257.354 77.4223 257.859 77.7301 258.313 78.1562C258.768 78.5777 259.13 79.1364 259.4 79.8324C259.67 80.5284 259.805 81.3854 259.805 82.4034V83.1136H251.396V81.6648H258.1C258.1 81.0492 257.977 80.5 257.731 80.017C257.489 79.5341 257.144 79.1529 256.694 78.8736C256.249 78.5942 255.723 78.4545 255.117 78.4545C254.45 78.4545 253.872 78.6203 253.384 78.9517C252.901 79.2784 252.53 79.7045 252.269 80.2301C252.009 80.7557 251.879 81.3191 251.879 81.9205V82.8864C251.879 83.7102 252.021 84.4086 252.305 84.9815C252.594 85.5497 252.994 85.983 253.505 86.2812C254.016 86.5748 254.611 86.7216 255.288 86.7216C255.728 86.7216 256.126 86.66 256.481 86.5369C256.841 86.4091 257.151 86.2197 257.411 85.9688C257.672 85.7131 257.873 85.3958 258.015 85.017L259.634 85.4716C259.464 86.0208 259.177 86.5038 258.775 86.9205C258.372 87.3324 257.875 87.6544 257.283 87.8864C256.692 88.1136 256.026 88.2273 255.288 88.2273ZM262.354 88V77.0909H263.974V78.7955H264.116C264.343 78.2131 264.71 77.7609 265.217 77.4389C265.723 77.1122 266.332 76.9489 267.042 76.9489C267.762 76.9489 268.361 77.1122 268.839 77.4389C269.322 77.7609 269.698 78.2131 269.968 78.7955H270.082C270.361 78.232 270.78 77.7846 271.339 77.4531C271.897 77.117 272.567 76.9489 273.349 76.9489C274.324 76.9489 275.122 77.2543 275.742 77.8651C276.362 78.4711 276.673 79.4157 276.673 80.6989V88H274.996V80.6989C274.996 79.8939 274.776 79.3187 274.336 78.973C273.896 78.6274 273.377 78.4545 272.781 78.4545C272.013 78.4545 271.419 78.6866 270.998 79.1506C270.576 79.6098 270.366 80.1922 270.366 80.8977V88H268.661V80.5284C268.661 79.9081 268.46 79.4086 268.058 79.0298C267.655 78.6463 267.137 78.4545 266.502 78.4545C266.067 78.4545 265.659 78.5705 265.281 78.8026C264.906 79.0346 264.603 79.3565 264.371 79.7685C264.144 80.1757 264.031 80.6468 264.031 81.1818V88H262.354ZM284.879 72.7727L280.192 90.1875H278.658L283.345 72.7727H284.879ZM291.298 88.2273C290.275 88.2273 289.395 87.9858 288.656 87.5028C287.917 87.0199 287.349 86.3546 286.951 85.5071C286.554 84.6596 286.355 83.6913 286.355 82.6023C286.355 81.4943 286.558 80.5166 286.966 79.669C287.377 78.8168 287.95 78.1515 288.684 77.6733C289.423 77.1903 290.285 76.9489 291.27 76.9489C292.037 76.9489 292.728 77.0909 293.343 77.375C293.959 77.6591 294.463 78.0568 294.856 78.5682C295.249 79.0795 295.493 79.6761 295.588 80.358H293.912C293.784 79.8608 293.5 79.4205 293.059 79.0369C292.624 78.6487 292.037 78.4545 291.298 78.4545C290.645 78.4545 290.072 78.625 289.579 78.9659C289.092 79.3021 288.71 79.7779 288.436 80.3935C288.166 81.0043 288.031 81.7216 288.031 82.5455C288.031 83.3883 288.163 84.1222 288.429 84.7472C288.699 85.3722 289.077 85.8575 289.565 86.2031C290.057 86.5488 290.635 86.7216 291.298 86.7216C291.734 86.7216 292.129 86.6458 292.484 86.4943C292.839 86.3428 293.14 86.125 293.386 85.8409C293.632 85.5568 293.807 85.2159 293.912 84.8182H295.588C295.493 85.4621 295.259 86.0421 294.885 86.5582C294.515 87.0696 294.025 87.4768 293.414 87.7798C292.808 88.0781 292.103 88.2273 291.298 88.2273ZM302.47 88.2273C301.485 88.2273 300.621 87.9929 299.877 87.5241C299.139 87.0554 298.561 86.3996 298.145 85.5568C297.733 84.714 297.527 83.7292 297.527 82.6023C297.527 81.4659 297.733 80.474 298.145 79.6264C298.561 78.7789 299.139 78.1207 299.877 77.652C300.621 77.1832 301.485 76.9489 302.47 76.9489C303.455 76.9489 304.316 77.1832 305.055 77.652C305.798 78.1207 306.376 78.7789 306.788 79.6264C307.205 80.474 307.413 81.4659 307.413 82.6023C307.413 83.7292 307.205 84.714 306.788 85.5568C306.376 86.3996 305.798 87.0554 305.055 87.5241C304.316 87.9929 303.455 88.2273 302.47 88.2273ZM302.47 86.7216C303.218 86.7216 303.833 86.5298 304.316 86.1463C304.799 85.7628 305.157 85.2585 305.389 84.6335C305.621 84.0085 305.737 83.3314 305.737 82.6023C305.737 81.8731 305.621 81.1937 305.389 80.5639C305.157 79.9342 304.799 79.4252 304.316 79.0369C303.833 78.6487 303.218 78.4545 302.47 78.4545C301.722 78.4545 301.106 78.6487 300.623 79.0369C300.14 79.4252 299.783 79.9342 299.551 80.5639C299.319 81.1937 299.203 81.8731 299.203 82.6023C299.203 83.3314 299.319 84.0085 299.551 84.6335C299.783 85.2585 300.14 85.7628 300.623 86.1463C301.106 86.5298 301.722 86.7216 302.47 86.7216ZM311.648 73.4545V88H309.972V73.4545H311.648ZM319.15 88.2273C318.165 88.2273 317.301 87.9929 316.557 87.5241C315.819 87.0554 315.241 86.3996 314.824 85.5568C314.412 84.714 314.206 83.7292 314.206 82.6023C314.206 81.4659 314.412 80.474 314.824 79.6264C315.241 78.7789 315.819 78.1207 316.557 77.652C317.301 77.1832 318.165 76.9489 319.15 76.9489C320.134 76.9489 320.996 77.1832 321.735 77.652C322.478 78.1207 323.056 78.7789 323.468 79.6264C323.884 80.474 324.093 81.4659 324.093 82.6023C324.093 83.7292 323.884 84.714 323.468 85.5568C323.056 86.3996 322.478 87.0554 321.735 87.5241C320.996 87.9929 320.134 88.2273 319.15 88.2273ZM319.15 86.7216C319.898 86.7216 320.513 86.5298 320.996 86.1463C321.479 85.7628 321.837 85.2585 322.069 84.6335C322.301 84.0085 322.417 83.3314 322.417 82.6023C322.417 81.8731 322.301 81.1937 322.069 80.5639C321.837 79.9342 321.479 79.4252 320.996 79.0369C320.513 78.6487 319.898 78.4545 319.15 78.4545C318.401 78.4545 317.786 78.6487 317.303 79.0369C316.82 79.4252 316.462 79.9342 316.23 80.5639C315.998 81.1937 315.882 81.8731 315.882 82.6023C315.882 83.3314 315.998 84.0085 316.23 84.6335C316.462 85.2585 316.82 85.7628 317.303 86.1463C317.786 86.5298 318.401 86.7216 319.15 86.7216ZM326.651 88V77.0909H328.271V78.7386H328.384C328.583 78.1989 328.943 77.7609 329.464 77.4247C329.985 77.0885 330.572 76.9205 331.225 76.9205C331.348 76.9205 331.502 76.9228 331.687 76.9276C331.871 76.9323 332.011 76.9394 332.106 76.9489V78.6534C332.049 78.6392 331.919 78.6179 331.715 78.5895C331.516 78.5563 331.306 78.5398 331.083 78.5398C330.553 78.5398 330.079 78.651 329.663 78.8736C329.251 79.0914 328.924 79.3944 328.683 79.7827C328.446 80.1662 328.327 80.6042 328.327 81.0966V88H326.651ZM338.551 72.7727L333.864 90.1875H332.33L337.017 72.7727H338.551ZM345.396 77.0909V78.5114H339.515V77.0909H345.396ZM341.277 88V75.5852C341.277 74.9602 341.423 74.4394 341.717 74.0227C342.011 73.6061 342.392 73.2936 342.86 73.0852C343.329 72.8769 343.824 72.7727 344.345 72.7727C344.757 72.7727 345.093 72.8059 345.353 72.8722C345.614 72.9384 345.808 73 345.936 73.0568L345.453 74.5057C345.368 74.4773 345.249 74.4418 345.098 74.3991C344.951 74.3565 344.757 74.3352 344.515 74.3352C343.961 74.3352 343.561 74.4749 343.315 74.7543C343.074 75.0336 342.953 75.4432 342.953 75.983V88H341.277ZM354.62 83.5398V77.0909H356.296V88H354.62V86.1534H354.506C354.251 86.7074 353.853 87.1785 353.313 87.5668C352.773 87.9503 352.092 88.142 351.268 88.142C350.586 88.142 349.98 87.9929 349.45 87.6946C348.919 87.3916 348.503 86.937 348.2 86.331C347.897 85.7202 347.745 84.9508 347.745 84.0227V77.0909H349.421V83.9091C349.421 84.7045 349.644 85.339 350.089 85.8125C350.539 86.286 351.112 86.5227 351.808 86.5227C352.224 86.5227 352.648 86.4162 353.079 86.2031C353.514 85.9901 353.879 85.6634 354.173 85.223C354.471 84.7827 354.62 84.2216 354.62 83.5398ZM361.042 81.4375V88H359.366V77.0909H360.985V78.7955H361.127C361.383 78.2415 361.771 77.7964 362.292 77.4602C362.813 77.1193 363.485 76.9489 364.309 76.9489C365.048 76.9489 365.694 77.1004 366.248 77.4034C366.802 77.7017 367.233 78.1562 367.541 78.767C367.849 79.3731 368.002 80.1402 368.002 81.0682V88H366.326V81.1818C366.326 80.3248 366.104 79.6572 365.659 79.179C365.214 78.696 364.603 78.4545 363.826 78.4545C363.291 78.4545 362.813 78.5705 362.392 78.8026C361.975 79.0346 361.646 79.3731 361.404 79.8182C361.163 80.2633 361.042 80.803 361.042 81.4375ZM375.497 88.2273C374.474 88.2273 373.594 87.9858 372.855 87.5028C372.116 87.0199 371.548 86.3546 371.151 85.5071C370.753 84.6596 370.554 83.6913 370.554 82.6023C370.554 81.4943 370.758 80.5166 371.165 79.669C371.577 78.8168 372.15 78.1515 372.884 77.6733C373.622 77.1903 374.484 76.9489 375.469 76.9489C376.236 76.9489 376.927 77.0909 377.543 77.375C378.158 77.6591 378.662 78.0568 379.055 78.5682C379.448 79.0795 379.692 79.6761 379.787 80.358H378.111C377.983 79.8608 377.699 79.4205 377.259 79.0369C376.823 78.6487 376.236 78.4545 375.497 78.4545C374.844 78.4545 374.271 78.625 373.778 78.9659C373.291 79.3021 372.91 79.7779 372.635 80.3935C372.365 81.0043 372.23 81.7216 372.23 82.5455C372.23 83.3883 372.363 84.1222 372.628 84.7472C372.898 85.3722 373.277 85.8575 373.764 86.2031C374.257 86.5488 374.834 86.7216 375.497 86.7216C375.933 86.7216 376.328 86.6458 376.683 86.4943C377.038 86.3428 377.339 86.125 377.585 85.8409C377.831 85.5568 378.007 85.2159 378.111 84.8182H379.787C379.692 85.4621 379.458 86.0421 379.084 86.5582C378.714 87.0696 378.224 87.4768 377.614 87.7798C377.008 88.0781 376.302 88.2273 375.497 88.2273ZM386.982 77.0909V78.5114H381.328V77.0909H386.982ZM382.976 74.4773H384.652V84.875C384.652 85.3485 384.721 85.7036 384.858 85.9403C385 86.1723 385.18 86.3286 385.398 86.4091C385.62 86.4848 385.855 86.5227 386.101 86.5227C386.286 86.5227 386.437 86.5133 386.555 86.4943C386.674 86.4706 386.768 86.4517 386.839 86.4375L387.18 87.9432C387.067 87.9858 386.908 88.0284 386.705 88.071C386.501 88.1184 386.243 88.142 385.93 88.142C385.457 88.142 384.993 88.0402 384.538 87.8366C384.089 87.633 383.714 87.3229 383.416 86.9062C383.123 86.4896 382.976 85.964 382.976 85.3295V74.4773ZM389.503 88V77.0909H391.179V88H389.503ZM390.355 75.2727C390.028 75.2727 389.747 75.1615 389.51 74.9389C389.278 74.7164 389.162 74.4489 389.162 74.1364C389.162 73.8239 389.278 73.5563 389.51 73.3338C389.747 73.1113 390.028 73 390.355 73C390.682 73 390.961 73.1113 391.193 73.3338C391.43 73.5563 391.548 73.8239 391.548 74.1364C391.548 74.4489 391.43 74.7164 391.193 74.9389C390.961 75.1615 390.682 75.2727 390.355 75.2727ZM398.681 88.2273C397.696 88.2273 396.832 87.9929 396.088 87.5241C395.35 87.0554 394.772 86.3996 394.355 85.5568C393.944 84.714 393.738 83.7292 393.738 82.6023C393.738 81.4659 393.944 80.474 394.355 79.6264C394.772 78.7789 395.35 78.1207 396.088 77.652C396.832 77.1832 397.696 76.9489 398.681 76.9489C399.666 76.9489 400.527 77.1832 401.266 77.652C402.009 78.1207 402.587 78.7789 402.999 79.6264C403.416 80.474 403.624 81.4659 403.624 82.6023C403.624 83.7292 403.416 84.714 402.999 85.5568C402.587 86.3996 402.009 87.0554 401.266 87.5241C400.527 87.9929 399.666 88.2273 398.681 88.2273ZM398.681 86.7216C399.429 86.7216 400.044 86.5298 400.527 86.1463C401.01 85.7628 401.368 85.2585 401.6 84.6335C401.832 84.0085 401.948 83.3314 401.948 82.6023C401.948 81.8731 401.832 81.1937 401.6 80.5639C401.368 79.9342 401.01 79.4252 400.527 79.0369C400.044 78.6487 399.429 78.4545 398.681 78.4545C397.933 78.4545 397.317 78.6487 396.834 79.0369C396.351 79.4252 395.994 79.9342 395.762 80.5639C395.53 81.1937 395.414 81.8731 395.414 82.6023C395.414 83.3314 395.53 84.0085 395.762 84.6335C395.994 85.2585 396.351 85.7628 396.834 86.1463C397.317 86.5298 397.933 86.7216 398.681 86.7216ZM407.859 81.4375V88H406.183V77.0909H407.802V78.7955H407.944C408.2 78.2415 408.588 77.7964 409.109 77.4602C409.629 77.1193 410.302 76.9489 411.126 76.9489C411.864 76.9489 412.511 77.1004 413.065 77.4034C413.619 77.7017 414.049 78.1562 414.357 78.767C414.665 79.3731 414.819 80.1402 414.819 81.0682V88H413.143V81.1818C413.143 80.3248 412.92 79.6572 412.475 79.179C412.03 78.696 411.419 78.4545 410.643 78.4545C410.108 78.4545 409.629 78.5705 409.208 78.8026C408.791 79.0346 408.462 79.3731 408.221 79.8182C407.979 80.2633 407.859 80.803 407.859 81.4375ZM421.092 88.2557C420.401 88.2557 419.773 88.1255 419.21 87.8651C418.646 87.5999 418.199 87.2188 417.868 86.7216C417.536 86.2197 417.37 85.6136 417.37 84.9034C417.37 84.2784 417.493 83.7718 417.74 83.3835C417.986 82.9905 418.315 82.6828 418.727 82.4602C419.139 82.2377 419.593 82.072 420.091 81.9631C420.592 81.8494 421.097 81.7595 421.603 81.6932C422.266 81.608 422.804 81.544 423.216 81.5014C423.632 81.4541 423.935 81.3759 424.125 81.267C424.319 81.1581 424.416 80.9687 424.416 80.6989V80.642C424.416 79.9413 424.224 79.3968 423.841 79.0085C423.462 78.6203 422.886 78.4261 422.115 78.4261C421.315 78.4261 420.687 78.6013 420.233 78.9517C419.778 79.3021 419.458 79.6761 419.274 80.0739L417.683 79.5057C417.967 78.8428 418.346 78.3267 418.819 77.9574C419.297 77.5833 419.818 77.3229 420.382 77.1761C420.95 77.0246 421.509 76.9489 422.058 76.9489C422.408 76.9489 422.811 76.9915 423.265 77.0767C423.725 77.1572 424.167 77.3253 424.593 77.581C425.024 77.8366 425.382 78.2225 425.666 78.7386C425.95 79.2547 426.092 79.946 426.092 80.8125V88H424.416V86.5227H424.331C424.217 86.7595 424.028 87.0128 423.762 87.2827C423.497 87.5526 423.145 87.7822 422.704 87.9716C422.264 88.161 421.726 88.2557 421.092 88.2557ZM421.348 86.75C422.011 86.75 422.569 86.6198 423.024 86.3594C423.483 86.099 423.829 85.7628 424.061 85.3509C424.297 84.9389 424.416 84.5057 424.416 84.0511V82.517C424.345 82.6023 424.189 82.6804 423.947 82.7514C423.71 82.8177 423.436 82.8769 423.123 82.929C422.815 82.9763 422.515 83.0189 422.221 83.0568C421.932 83.09 421.698 83.1184 421.518 83.142C421.083 83.1989 420.675 83.2912 420.297 83.419C419.922 83.5421 419.619 83.7292 419.387 83.9801C419.16 84.2263 419.047 84.5625 419.047 84.9886C419.047 85.571 419.262 86.0114 419.693 86.3097C420.128 86.6032 420.68 86.75 421.348 86.75ZM430.827 73.4545V88H429.151V73.4545H430.827ZM439.039 72.7727L434.352 90.1875H432.818L437.505 72.7727H439.039ZM448.754 79.5341L447.248 79.9602C447.153 79.7093 447.013 79.4654 446.829 79.2287C446.649 78.9872 446.403 78.7884 446.09 78.6321C445.778 78.4759 445.378 78.3977 444.89 78.3977C444.222 78.3977 443.666 78.5516 443.221 78.8594C442.781 79.1624 442.56 79.5483 442.56 80.017C442.56 80.4337 442.712 80.7628 443.015 81.0043C443.318 81.2457 443.791 81.447 444.435 81.608L446.055 82.0057C447.03 82.2424 447.757 82.6046 448.235 83.0923C448.713 83.5753 448.952 84.1979 448.952 84.9602C448.952 85.5852 448.772 86.1439 448.413 86.6364C448.058 87.1288 447.56 87.517 446.921 87.8011C446.282 88.0852 445.539 88.2273 444.691 88.2273C443.578 88.2273 442.657 87.9858 441.928 87.5028C441.199 87.0199 440.737 86.3144 440.543 85.3864L442.134 84.9886C442.286 85.5758 442.572 86.0161 442.994 86.3097C443.42 86.6032 443.976 86.75 444.663 86.75C445.444 86.75 446.064 86.5843 446.523 86.2528C446.987 85.9167 447.219 85.5142 447.219 85.0455C447.219 84.6667 447.087 84.3494 446.822 84.0938C446.557 83.8333 446.149 83.6392 445.6 83.5114L443.782 83.0852C442.783 82.8485 442.049 82.4815 441.58 81.9844C441.116 81.4825 440.884 80.8551 440.884 80.1023C440.884 79.4867 441.057 78.9422 441.403 78.4688C441.753 77.9953 442.229 77.6236 442.83 77.3537C443.436 77.0838 444.123 76.9489 444.89 76.9489C445.969 76.9489 446.817 77.1856 447.433 77.6591C448.053 78.1326 448.493 78.7576 448.754 79.5341ZM458.35 83.5398V77.0909H460.027V88H458.35V86.1534H458.237C457.981 86.7074 457.583 87.1785 457.044 87.5668C456.504 87.9503 455.822 88.142 454.998 88.142C454.316 88.142 453.71 87.9929 453.18 87.6946C452.65 87.3916 452.233 86.937 451.93 86.331C451.627 85.7202 451.475 84.9508 451.475 84.0227V77.0909H453.152V83.9091C453.152 84.7045 453.374 85.339 453.819 85.8125C454.269 86.286 454.842 86.5227 455.538 86.5227C455.955 86.5227 456.378 86.4162 456.809 86.2031C457.245 85.9901 457.609 85.6634 457.903 85.223C458.201 84.7827 458.35 84.2216 458.35 83.5398ZM467.528 88.2273C466.506 88.2273 465.625 87.9858 464.886 87.5028C464.148 87.0199 463.58 86.3546 463.182 85.5071C462.784 84.6596 462.585 83.6913 462.585 82.6023C462.585 81.4943 462.789 80.5166 463.196 79.669C463.608 78.8168 464.181 78.1515 464.915 77.6733C465.653 77.1903 466.515 76.9489 467.5 76.9489C468.267 76.9489 468.958 77.0909 469.574 77.375C470.189 77.6591 470.694 78.0568 471.087 78.5682C471.48 79.0795 471.723 79.6761 471.818 80.358H470.142C470.014 79.8608 469.73 79.4205 469.29 79.0369C468.854 78.6487 468.267 78.4545 467.528 78.4545C466.875 78.4545 466.302 78.625 465.81 78.9659C465.322 79.3021 464.941 79.7779 464.666 80.3935C464.396 81.0043 464.261 81.7216 464.261 82.5455C464.261 83.3883 464.394 84.1222 464.659 84.7472C464.929 85.3722 465.308 85.8575 465.795 86.2031C466.288 86.5488 466.866 86.7216 467.528 86.7216C467.964 86.7216 468.359 86.6458 468.714 86.4943C469.07 86.3428 469.37 86.125 469.616 85.8409C469.863 85.5568 470.038 85.2159 470.142 84.8182H471.818C471.723 85.4621 471.489 86.0421 471.115 86.5582C470.746 87.0696 470.256 87.4768 469.645 87.7798C469.039 88.0781 468.333 88.2273 467.528 88.2273ZM478.7 88.2273C477.678 88.2273 476.797 87.9858 476.058 87.5028C475.32 87.0199 474.751 86.3546 474.354 85.5071C473.956 84.6596 473.757 83.6913 473.757 82.6023C473.757 81.4943 473.961 80.5166 474.368 79.669C474.78 78.8168 475.353 78.1515 476.087 77.6733C476.825 77.1903 477.687 76.9489 478.672 76.9489C479.439 76.9489 480.13 77.0909 480.746 77.375C481.361 77.6591 481.866 78.0568 482.259 78.5682C482.652 79.0795 482.895 79.6761 482.99 80.358H481.314C481.186 79.8608 480.902 79.4205 480.462 79.0369C480.026 78.6487 479.439 78.4545 478.7 78.4545C478.047 78.4545 477.474 78.625 476.982 78.9659C476.494 79.3021 476.113 79.7779 475.838 80.3935C475.568 81.0043 475.433 81.7216 475.433 82.5455C475.433 83.3883 475.566 84.1222 475.831 84.7472C476.101 85.3722 476.48 85.8575 476.967 86.2031C477.46 86.5488 478.037 86.7216 478.7 86.7216C479.136 86.7216 479.531 86.6458 479.886 86.4943C480.241 86.3428 480.542 86.125 480.788 85.8409C481.035 85.5568 481.21 85.2159 481.314 84.8182H482.99C482.895 85.4621 482.661 86.0421 482.287 86.5582C481.918 87.0696 481.428 87.4768 480.817 87.7798C480.211 88.0781 479.505 88.2273 478.7 88.2273ZM490.014 88.2273C488.963 88.2273 488.056 87.9953 487.294 87.5312C486.536 87.0625 485.952 86.4091 485.54 85.571C485.133 84.7282 484.929 83.7481 484.929 82.6307C484.929 81.5133 485.133 80.5284 485.54 79.6761C485.952 78.8191 486.525 78.1515 487.259 77.6733C487.997 77.1903 488.859 76.9489 489.844 76.9489C490.412 76.9489 490.973 77.0436 491.527 77.233C492.081 77.4223 492.585 77.7301 493.04 78.1562C493.494 78.5777 493.857 79.1364 494.126 79.8324C494.396 80.5284 494.531 81.3854 494.531 82.4034V83.1136H486.122V81.6648H492.827C492.827 81.0492 492.704 80.5 492.457 80.017C492.216 79.5341 491.87 79.1529 491.42 78.8736C490.975 78.5942 490.45 78.4545 489.844 78.4545C489.176 78.4545 488.598 78.6203 488.111 78.9517C487.628 79.2784 487.256 79.7045 486.996 80.2301C486.735 80.7557 486.605 81.3191 486.605 81.9205V82.8864C486.605 83.7102 486.747 84.4086 487.031 84.9815C487.32 85.5497 487.72 85.983 488.232 86.2812C488.743 86.5748 489.337 86.7216 490.014 86.7216C490.455 86.7216 490.852 86.66 491.207 86.5369C491.567 86.4091 491.877 86.2197 492.138 85.9688C492.398 85.7131 492.599 85.3958 492.741 85.017L494.361 85.4716C494.19 86.0208 493.904 86.5038 493.501 86.9205C493.099 87.3324 492.602 87.6544 492.01 87.8864C491.418 88.1136 490.753 88.2273 490.014 88.2273ZM504.808 79.5341L503.303 79.9602C503.208 79.7093 503.068 79.4654 502.884 79.2287C502.704 78.9872 502.457 78.7884 502.145 78.6321C501.832 78.4759 501.432 78.3977 500.945 78.3977C500.277 78.3977 499.721 78.5516 499.276 78.8594C498.835 79.1624 498.615 79.5483 498.615 80.017C498.615 80.4337 498.767 80.7628 499.07 81.0043C499.373 81.2457 499.846 81.447 500.49 81.608L502.109 82.0057C503.085 82.2424 503.812 82.6046 504.29 83.0923C504.768 83.5753 505.007 84.1979 505.007 84.9602C505.007 85.5852 504.827 86.1439 504.467 86.6364C504.112 87.1288 503.615 87.517 502.976 87.8011C502.337 88.0852 501.593 88.2273 500.746 88.2273C499.633 88.2273 498.712 87.9858 497.983 87.5028C497.254 87.0199 496.792 86.3144 496.598 85.3864L498.189 84.9886C498.34 85.5758 498.627 86.0161 499.048 86.3097C499.474 86.6032 500.031 86.75 500.717 86.75C501.499 86.75 502.119 86.5843 502.578 86.2528C503.042 85.9167 503.274 85.5142 503.274 85.0455C503.274 84.6667 503.142 84.3494 502.876 84.0938C502.611 83.8333 502.204 83.6392 501.655 83.5114L499.837 83.0852C498.838 82.8485 498.104 82.4815 497.635 81.9844C497.171 81.4825 496.939 80.8551 496.939 80.1023C496.939 79.4867 497.112 78.9422 497.457 78.4688C497.808 77.9953 498.284 77.6236 498.885 77.3537C499.491 77.0838 500.178 76.9489 500.945 76.9489C502.024 76.9489 502.872 77.1856 503.487 77.6591C504.107 78.1326 504.548 78.7576 504.808 79.5341ZM515.257 79.5341L513.752 79.9602C513.657 79.7093 513.517 79.4654 513.333 79.2287C513.153 78.9872 512.907 78.7884 512.594 78.6321C512.282 78.4759 511.882 78.3977 511.394 78.3977C510.726 78.3977 510.17 78.5516 509.725 78.8594C509.284 79.1624 509.064 79.5483 509.064 80.017C509.064 80.4337 509.216 80.7628 509.519 81.0043C509.822 81.2457 510.295 81.447 510.939 81.608L512.559 82.0057C513.534 82.2424 514.261 82.6046 514.739 83.0923C515.217 83.5753 515.456 84.1979 515.456 84.9602C515.456 85.5852 515.276 86.1439 514.917 86.6364C514.561 87.1288 514.064 87.517 513.425 87.8011C512.786 88.0852 512.042 88.2273 511.195 88.2273C510.082 88.2273 509.161 87.9858 508.432 87.5028C507.703 87.0199 507.241 86.3144 507.047 85.3864L508.638 84.9886C508.79 85.5758 509.076 86.0161 509.498 86.3097C509.924 86.6032 510.48 86.75 511.167 86.75C511.948 86.75 512.568 86.5843 513.027 86.2528C513.491 85.9167 513.723 85.5142 513.723 85.0455C513.723 84.6667 513.591 84.3494 513.326 84.0938C513.06 83.8333 512.653 83.6392 512.104 83.5114L510.286 83.0852C509.287 82.8485 508.553 82.4815 508.084 81.9844C507.62 81.4825 507.388 80.8551 507.388 80.1023C507.388 79.4867 507.561 78.9422 507.907 78.4688C508.257 77.9953 508.733 77.6236 509.334 77.3537C509.94 77.0838 510.627 76.9489 511.394 76.9489C512.473 76.9489 513.321 77.1856 513.936 77.6591C514.557 78.1326 514.997 78.7576 515.257 79.5341Z" fill="white"/>
<rect x="75" y="208" width="413" height="44" rx="22" fill="#020A17"/>
<path d="M96.2614 228.534L94.7557 228.96C94.661 228.709 94.5213 228.465 94.3366 228.229C94.1567 227.987 93.9105 227.788 93.598 227.632C93.2855 227.476 92.8854 227.398 92.3977 227.398C91.7301 227.398 91.1738 227.552 90.7287 227.859C90.2884 228.162 90.0682 228.548 90.0682 229.017C90.0682 229.434 90.2197 229.763 90.5227 230.004C90.8258 230.246 91.2992 230.447 91.9432 230.608L93.5625 231.006C94.5379 231.242 95.2647 231.605 95.7429 232.092C96.2211 232.575 96.4602 233.198 96.4602 233.96C96.4602 234.585 96.2803 235.144 95.9205 235.636C95.5653 236.129 95.0682 236.517 94.429 236.801C93.7898 237.085 93.0464 237.227 92.1989 237.227C91.0862 237.227 90.1652 236.986 89.4361 236.503C88.7069 236.02 88.2453 235.314 88.0511 234.386L89.642 233.989C89.7936 234.576 90.08 235.016 90.5014 235.31C90.9276 235.603 91.4839 235.75 92.1705 235.75C92.9517 235.75 93.572 235.584 94.0312 235.253C94.4953 234.917 94.7273 234.514 94.7273 234.045C94.7273 233.667 94.5947 233.349 94.3295 233.094C94.0644 232.833 93.6572 232.639 93.108 232.511L91.2898 232.085C90.2907 231.848 89.5568 231.482 89.0881 230.984C88.6241 230.482 88.392 229.855 88.392 229.102C88.392 228.487 88.5649 227.942 88.9105 227.469C89.2609 226.995 89.7367 226.624 90.3381 226.354C90.9441 226.084 91.6307 225.949 92.3977 225.949C93.4773 225.949 94.3248 226.186 94.9403 226.659C95.5606 227.133 96.0009 227.758 96.2614 228.534ZM100.063 241.091C99.7788 241.091 99.5254 241.067 99.3029 241.02C99.0804 240.977 98.9265 240.935 98.8413 240.892L99.2674 239.415C99.6746 239.519 100.034 239.557 100.347 239.528C100.659 239.5 100.936 239.36 101.178 239.109C101.424 238.863 101.649 238.463 101.853 237.909L102.165 237.057L98.131 226.091H99.9492L102.961 234.784H103.074L106.086 226.091H107.904L103.273 238.591C103.065 239.154 102.807 239.621 102.499 239.99C102.191 240.364 101.834 240.641 101.426 240.821C101.024 241.001 100.569 241.091 100.063 241.091ZM117.843 228.534L116.338 228.96C116.243 228.709 116.103 228.465 115.919 228.229C115.739 227.987 115.493 227.788 115.18 227.632C114.868 227.476 114.467 227.398 113.98 227.398C113.312 227.398 112.756 227.552 112.311 227.859C111.87 228.162 111.65 228.548 111.65 229.017C111.65 229.434 111.802 229.763 112.105 230.004C112.408 230.246 112.881 230.447 113.525 230.608L115.145 231.006C116.12 231.242 116.847 231.605 117.325 232.092C117.803 232.575 118.042 233.198 118.042 233.96C118.042 234.585 117.862 235.144 117.502 235.636C117.147 236.129 116.65 236.517 116.011 236.801C115.372 237.085 114.628 237.227 113.781 237.227C112.668 237.227 111.747 236.986 111.018 236.503C110.289 236.02 109.827 235.314 109.633 234.386L111.224 233.989C111.376 234.576 111.662 235.016 112.083 235.31C112.51 235.603 113.066 235.75 113.752 235.75C114.534 235.75 115.154 235.584 115.613 235.253C116.077 234.917 116.309 234.514 116.309 234.045C116.309 233.667 116.177 233.349 115.912 233.094C115.646 232.833 115.239 232.639 114.69 232.511L112.872 232.085C111.873 231.848 111.139 231.482 110.67 230.984C110.206 230.482 109.974 229.855 109.974 229.102C109.974 228.487 110.147 227.942 110.493 227.469C110.843 226.995 111.319 226.624 111.92 226.354C112.526 226.084 113.213 225.949 113.98 225.949C115.059 225.949 115.907 226.186 116.522 226.659C117.143 227.133 117.583 227.758 117.843 228.534ZM125.31 226.091V227.511H119.656V226.091H125.31ZM121.304 223.477H122.98V233.875C122.98 234.348 123.049 234.704 123.186 234.94C123.328 235.172 123.508 235.329 123.726 235.409C123.948 235.485 124.183 235.523 124.429 235.523C124.614 235.523 124.765 235.513 124.884 235.494C125.002 235.471 125.097 235.452 125.168 235.438L125.509 236.943C125.395 236.986 125.236 237.028 125.033 237.071C124.829 237.118 124.571 237.142 124.259 237.142C123.785 237.142 123.321 237.04 122.866 236.837C122.417 236.633 122.043 236.323 121.744 235.906C121.451 235.49 121.304 234.964 121.304 234.33V223.477ZM132.288 237.227C131.237 237.227 130.33 236.995 129.567 236.531C128.81 236.062 128.225 235.409 127.813 234.571C127.406 233.728 127.202 232.748 127.202 231.631C127.202 230.513 127.406 229.528 127.813 228.676C128.225 227.819 128.798 227.152 129.532 226.673C130.271 226.19 131.132 225.949 132.117 225.949C132.685 225.949 133.246 226.044 133.8 226.233C134.354 226.422 134.859 226.73 135.313 227.156C135.768 227.578 136.13 228.136 136.4 228.832C136.67 229.528 136.805 230.385 136.805 231.403V232.114H128.396V230.665H135.1C135.1 230.049 134.977 229.5 134.731 229.017C134.489 228.534 134.144 228.153 133.694 227.874C133.249 227.594 132.723 227.455 132.117 227.455C131.45 227.455 130.872 227.62 130.384 227.952C129.901 228.278 129.53 228.705 129.269 229.23C129.009 229.756 128.879 230.319 128.879 230.92V231.886C128.879 232.71 129.021 233.409 129.305 233.982C129.594 234.55 129.994 234.983 130.505 235.281C131.016 235.575 131.611 235.722 132.288 235.722C132.728 235.722 133.126 235.66 133.481 235.537C133.841 235.409 134.151 235.22 134.411 234.969C134.672 234.713 134.873 234.396 135.015 234.017L136.634 234.472C136.464 235.021 136.177 235.504 135.775 235.92C135.372 236.332 134.875 236.654 134.283 236.886C133.692 237.114 133.026 237.227 132.288 237.227ZM139.354 237V226.091H140.974V227.795H141.116C141.343 227.213 141.71 226.761 142.217 226.439C142.723 226.112 143.332 225.949 144.042 225.949C144.762 225.949 145.361 226.112 145.839 226.439C146.322 226.761 146.698 227.213 146.968 227.795H147.082C147.361 227.232 147.78 226.785 148.339 226.453C148.897 226.117 149.567 225.949 150.349 225.949C151.324 225.949 152.122 226.254 152.742 226.865C153.362 227.471 153.673 228.416 153.673 229.699V237H151.996V229.699C151.996 228.894 151.776 228.319 151.336 227.973C150.896 227.627 150.377 227.455 149.781 227.455C149.013 227.455 148.419 227.687 147.998 228.151C147.576 228.61 147.366 229.192 147.366 229.898V237H145.661V229.528C145.661 228.908 145.46 228.409 145.058 228.03C144.655 227.646 144.137 227.455 143.502 227.455C143.067 227.455 142.659 227.571 142.281 227.803C141.906 228.035 141.603 228.357 141.371 228.768C141.144 229.176 141.031 229.647 141.031 230.182V237H139.354ZM161.879 221.773L157.192 239.188H155.658L160.345 221.773H161.879ZM168.298 237.227C167.275 237.227 166.395 236.986 165.656 236.503C164.917 236.02 164.349 235.355 163.951 234.507C163.554 233.66 163.355 232.691 163.355 231.602C163.355 230.494 163.558 229.517 163.966 228.669C164.377 227.817 164.95 227.152 165.684 226.673C166.423 226.19 167.285 225.949 168.27 225.949C169.037 225.949 169.728 226.091 170.343 226.375C170.959 226.659 171.463 227.057 171.856 227.568C172.249 228.08 172.493 228.676 172.588 229.358H170.912C170.784 228.861 170.5 228.42 170.059 228.037C169.624 227.649 169.037 227.455 168.298 227.455C167.645 227.455 167.072 227.625 166.579 227.966C166.092 228.302 165.71 228.778 165.436 229.393C165.166 230.004 165.031 230.722 165.031 231.545C165.031 232.388 165.163 233.122 165.429 233.747C165.699 234.372 166.077 234.857 166.565 235.203C167.057 235.549 167.635 235.722 168.298 235.722C168.734 235.722 169.129 235.646 169.484 235.494C169.839 235.343 170.14 235.125 170.386 234.841C170.632 234.557 170.807 234.216 170.912 233.818H172.588C172.493 234.462 172.259 235.042 171.885 235.558C171.515 236.07 171.025 236.477 170.414 236.78C169.808 237.078 169.103 237.227 168.298 237.227ZM179.47 237.227C178.485 237.227 177.621 236.993 176.877 236.524C176.139 236.055 175.561 235.4 175.145 234.557C174.733 233.714 174.527 232.729 174.527 231.602C174.527 230.466 174.733 229.474 175.145 228.626C175.561 227.779 176.139 227.121 176.877 226.652C177.621 226.183 178.485 225.949 179.47 225.949C180.455 225.949 181.316 226.183 182.055 226.652C182.798 227.121 183.376 227.779 183.788 228.626C184.205 229.474 184.413 230.466 184.413 231.602C184.413 232.729 184.205 233.714 183.788 234.557C183.376 235.4 182.798 236.055 182.055 236.524C181.316 236.993 180.455 237.227 179.47 237.227ZM179.47 235.722C180.218 235.722 180.833 235.53 181.316 235.146C181.799 234.763 182.157 234.259 182.389 233.634C182.621 233.009 182.737 232.331 182.737 231.602C182.737 230.873 182.621 230.194 182.389 229.564C182.157 228.934 181.799 228.425 181.316 228.037C180.833 227.649 180.218 227.455 179.47 227.455C178.722 227.455 178.106 227.649 177.623 228.037C177.14 228.425 176.783 228.934 176.551 229.564C176.319 230.194 176.203 230.873 176.203 231.602C176.203 232.331 176.319 233.009 176.551 233.634C176.783 234.259 177.14 234.763 177.623 235.146C178.106 235.53 178.722 235.722 179.47 235.722ZM188.648 222.455V237H186.972V222.455H188.648ZM196.15 237.227C195.165 237.227 194.301 236.993 193.557 236.524C192.819 236.055 192.241 235.4 191.824 234.557C191.412 233.714 191.206 232.729 191.206 231.602C191.206 230.466 191.412 229.474 191.824 228.626C192.241 227.779 192.819 227.121 193.557 226.652C194.301 226.183 195.165 225.949 196.15 225.949C197.134 225.949 197.996 226.183 198.735 226.652C199.478 227.121 200.056 227.779 200.468 228.626C200.884 229.474 201.093 230.466 201.093 231.602C201.093 232.729 200.884 233.714 200.468 234.557C200.056 235.4 199.478 236.055 198.735 236.524C197.996 236.993 197.134 237.227 196.15 237.227ZM196.15 235.722C196.898 235.722 197.513 235.53 197.996 235.146C198.479 234.763 198.837 234.259 199.069 233.634C199.301 233.009 199.417 232.331 199.417 231.602C199.417 230.873 199.301 230.194 199.069 229.564C198.837 228.934 198.479 228.425 197.996 228.037C197.513 227.649 196.898 227.455 196.15 227.455C195.401 227.455 194.786 227.649 194.303 228.037C193.82 228.425 193.462 228.934 193.23 229.564C192.998 230.194 192.882 230.873 192.882 231.602C192.882 232.331 192.998 233.009 193.23 233.634C193.462 234.259 193.82 234.763 194.303 235.146C194.786 235.53 195.401 235.722 196.15 235.722ZM203.651 237V226.091H205.271V227.739H205.384C205.583 227.199 205.943 226.761 206.464 226.425C206.985 226.089 207.572 225.92 208.225 225.92C208.348 225.92 208.502 225.923 208.687 225.928C208.871 225.932 209.011 225.939 209.106 225.949V227.653C209.049 227.639 208.919 227.618 208.715 227.589C208.516 227.556 208.306 227.54 208.083 227.54C207.553 227.54 207.079 227.651 206.663 227.874C206.251 228.091 205.924 228.394 205.683 228.783C205.446 229.166 205.327 229.604 205.327 230.097V237H203.651ZM215.551 221.773L210.864 239.188H209.33L214.017 221.773H215.551ZM222.112 237.227C221.061 237.227 220.154 236.995 219.392 236.531C218.634 236.062 218.049 235.409 217.637 234.571C217.23 233.728 217.027 232.748 217.027 231.631C217.027 230.513 217.23 229.528 217.637 228.676C218.049 227.819 218.622 227.152 219.356 226.673C220.095 226.19 220.957 225.949 221.941 225.949C222.51 225.949 223.071 226.044 223.625 226.233C224.179 226.422 224.683 226.73 225.137 227.156C225.592 227.578 225.954 228.136 226.224 228.832C226.494 229.528 226.629 230.385 226.629 231.403V232.114H218.22V230.665H224.924C224.924 230.049 224.801 229.5 224.555 229.017C224.314 228.534 223.968 228.153 223.518 227.874C223.073 227.594 222.547 227.455 221.941 227.455C221.274 227.455 220.696 227.62 220.208 227.952C219.725 228.278 219.354 228.705 219.093 229.23C218.833 229.756 218.703 230.319 218.703 230.92V231.886C218.703 232.71 218.845 233.409 219.129 233.982C219.418 234.55 219.818 234.983 220.329 235.281C220.841 235.575 221.435 235.722 222.112 235.722C222.552 235.722 222.95 235.66 223.305 235.537C223.665 235.409 223.975 235.22 224.235 234.969C224.496 234.713 224.697 234.396 224.839 234.017L226.458 234.472C226.288 235.021 226.002 235.504 225.599 235.92C225.197 236.332 224.699 236.654 224.108 236.886C223.516 237.114 222.85 237.227 222.112 237.227ZM230.855 222.455V237H229.179V222.455H230.855ZM238.499 237.227C237.447 237.227 236.541 236.995 235.778 236.531C235.021 236.062 234.436 235.409 234.024 234.571C233.617 233.728 233.413 232.748 233.413 231.631C233.413 230.513 233.617 229.528 234.024 228.676C234.436 227.819 235.009 227.152 235.743 226.673C236.482 226.19 237.343 225.949 238.328 225.949C238.896 225.949 239.457 226.044 240.011 226.233C240.565 226.422 241.07 226.73 241.524 227.156C241.979 227.578 242.341 228.136 242.611 228.832C242.881 229.528 243.016 230.385 243.016 231.403V232.114H234.607V230.665H241.311C241.311 230.049 241.188 229.5 240.942 229.017C240.7 228.534 240.355 228.153 239.905 227.874C239.46 227.594 238.934 227.455 238.328 227.455C237.661 227.455 237.083 227.62 236.595 227.952C236.112 228.278 235.741 228.705 235.48 229.23C235.22 229.756 235.089 230.319 235.089 230.92V231.886C235.089 232.71 235.232 233.409 235.516 233.982C235.804 234.55 236.205 234.983 236.716 235.281C237.227 235.575 237.821 235.722 238.499 235.722C238.939 235.722 239.337 235.66 239.692 235.537C240.052 235.409 240.362 235.22 240.622 234.969C240.883 234.713 241.084 234.396 241.226 234.017L242.845 234.472C242.675 235.021 242.388 235.504 241.986 235.92C241.583 236.332 241.086 236.654 240.494 236.886C239.902 237.114 239.237 237.227 238.499 237.227ZM254.154 226.091L250.12 237H248.415L244.381 226.091H246.199L249.211 234.784H249.324L252.336 226.091H254.154ZM259.244 237.256C258.553 237.256 257.926 237.125 257.362 236.865C256.799 236.6 256.351 236.219 256.02 235.722C255.688 235.22 255.523 234.614 255.523 233.903C255.523 233.278 255.646 232.772 255.892 232.384C256.138 231.991 256.467 231.683 256.879 231.46C257.291 231.238 257.746 231.072 258.243 230.963C258.745 230.849 259.249 230.759 259.756 230.693C260.419 230.608 260.956 230.544 261.368 230.501C261.785 230.454 262.088 230.376 262.277 230.267C262.471 230.158 262.568 229.969 262.568 229.699V229.642C262.568 228.941 262.376 228.397 261.993 228.009C261.614 227.62 261.039 227.426 260.267 227.426C259.467 227.426 258.839 227.601 258.385 227.952C257.93 228.302 257.611 228.676 257.426 229.074L255.835 228.506C256.119 227.843 256.498 227.327 256.972 226.957C257.45 226.583 257.971 226.323 258.534 226.176C259.102 226.025 259.661 225.949 260.21 225.949C260.561 225.949 260.963 225.991 261.418 226.077C261.877 226.157 262.32 226.325 262.746 226.581C263.177 226.837 263.534 227.223 263.818 227.739C264.102 228.255 264.244 228.946 264.244 229.812V237H262.568V235.523H262.483C262.369 235.759 262.18 236.013 261.915 236.283C261.65 236.553 261.297 236.782 260.857 236.972C260.416 237.161 259.879 237.256 259.244 237.256ZM259.5 235.75C260.163 235.75 260.722 235.62 261.176 235.359C261.635 235.099 261.981 234.763 262.213 234.351C262.45 233.939 262.568 233.506 262.568 233.051V231.517C262.497 231.602 262.341 231.68 262.099 231.751C261.863 231.818 261.588 231.877 261.276 231.929C260.968 231.976 260.667 232.019 260.374 232.057C260.085 232.09 259.85 232.118 259.67 232.142C259.235 232.199 258.828 232.291 258.449 232.419C258.075 232.542 257.772 232.729 257.54 232.98C257.313 233.226 257.199 233.562 257.199 233.989C257.199 234.571 257.414 235.011 257.845 235.31C258.281 235.603 258.832 235.75 259.5 235.75ZM272.048 226.091V227.511H266.395V226.091H272.048ZM268.042 223.477H269.718V233.875C269.718 234.348 269.787 234.704 269.924 234.94C270.066 235.172 270.246 235.329 270.464 235.409C270.687 235.485 270.921 235.523 271.167 235.523C271.352 235.523 271.503 235.513 271.622 235.494C271.74 235.471 271.835 235.452 271.906 235.438L272.247 236.943C272.133 236.986 271.975 237.028 271.771 237.071C271.567 237.118 271.309 237.142 270.997 237.142C270.523 237.142 270.059 237.04 269.605 236.837C269.155 236.633 268.781 236.323 268.483 235.906C268.189 235.49 268.042 234.964 268.042 234.33V223.477ZM274.569 237V226.091H276.245V237H274.569ZM275.422 224.273C275.095 224.273 274.813 224.161 274.576 223.939C274.344 223.716 274.228 223.449 274.228 223.136C274.228 222.824 274.344 222.556 274.576 222.334C274.813 222.111 275.095 222 275.422 222C275.748 222 276.028 222.111 276.26 222.334C276.496 222.556 276.615 222.824 276.615 223.136C276.615 223.449 276.496 223.716 276.26 223.939C276.028 224.161 275.748 224.273 275.422 224.273ZM283.747 237.227C282.762 237.227 281.898 236.993 281.155 236.524C280.416 236.055 279.839 235.4 279.422 234.557C279.01 233.714 278.804 232.729 278.804 231.602C278.804 230.466 279.01 229.474 279.422 228.626C279.839 227.779 280.416 227.121 281.155 226.652C281.898 226.183 282.762 225.949 283.747 225.949C284.732 225.949 285.594 226.183 286.332 226.652C287.076 227.121 287.653 227.779 288.065 228.626C288.482 229.474 288.69 230.466 288.69 231.602C288.69 232.729 288.482 233.714 288.065 234.557C287.653 235.4 287.076 236.055 286.332 236.524C285.594 236.993 284.732 237.227 283.747 237.227ZM283.747 235.722C284.495 235.722 285.111 235.53 285.594 235.146C286.077 234.763 286.434 234.259 286.666 233.634C286.898 233.009 287.014 232.331 287.014 231.602C287.014 230.873 286.898 230.194 286.666 229.564C286.434 228.934 286.077 228.425 285.594 228.037C285.111 227.649 284.495 227.455 283.747 227.455C282.999 227.455 282.384 227.649 281.901 228.037C281.418 228.425 281.06 228.934 280.828 229.564C280.596 230.194 280.48 230.873 280.48 231.602C280.48 232.331 280.596 233.009 280.828 233.634C281.06 234.259 281.418 234.763 281.901 235.146C282.384 235.53 282.999 235.722 283.747 235.722ZM292.925 230.438V237H291.249V226.091H292.868V227.795H293.01C293.266 227.241 293.654 226.796 294.175 226.46C294.696 226.119 295.368 225.949 296.192 225.949C296.931 225.949 297.577 226.1 298.131 226.403C298.685 226.702 299.116 227.156 299.424 227.767C299.731 228.373 299.885 229.14 299.885 230.068V237H298.209V230.182C298.209 229.325 297.987 228.657 297.542 228.179C297.096 227.696 296.486 227.455 295.709 227.455C295.174 227.455 294.696 227.571 294.275 227.803C293.858 228.035 293.529 228.373 293.287 228.818C293.046 229.263 292.925 229.803 292.925 230.438ZM309.198 229.983V231.545H302.835V229.983H309.198ZM312.375 237V222.455H314.051V227.824H314.193C314.316 227.634 314.486 227.393 314.704 227.099C314.927 226.801 315.244 226.536 315.656 226.304C316.073 226.067 316.636 225.949 317.346 225.949C318.265 225.949 319.074 226.179 319.775 226.638C320.476 227.097 321.023 227.748 321.416 228.591C321.809 229.434 322.005 230.428 322.005 231.574C322.005 232.729 321.809 233.731 321.416 234.578C321.023 235.421 320.478 236.074 319.782 236.538C319.086 236.998 318.284 237.227 317.375 237.227C316.674 237.227 316.113 237.111 315.691 236.879C315.27 236.643 314.946 236.375 314.718 236.077C314.491 235.774 314.316 235.523 314.193 235.324H313.994V237H312.375ZM314.022 231.545C314.022 232.369 314.143 233.096 314.385 233.726C314.626 234.351 314.979 234.841 315.443 235.196C315.907 235.546 316.475 235.722 317.147 235.722C317.848 235.722 318.433 235.537 318.902 235.168C319.375 234.794 319.73 234.292 319.967 233.662C320.208 233.027 320.329 232.322 320.329 231.545C320.329 230.778 320.211 230.087 319.974 229.472C319.742 228.851 319.389 228.361 318.916 228.001C318.447 227.637 317.858 227.455 317.147 227.455C316.466 227.455 315.893 227.627 315.429 227.973C314.965 228.314 314.614 228.792 314.377 229.408C314.141 230.018 314.022 230.731 314.022 231.545ZM327.779 237.256C327.088 237.256 326.461 237.125 325.897 236.865C325.334 236.6 324.886 236.219 324.555 235.722C324.224 235.22 324.058 234.614 324.058 233.903C324.058 233.278 324.181 232.772 324.427 232.384C324.673 231.991 325.002 231.683 325.414 231.46C325.826 231.238 326.281 231.072 326.778 230.963C327.28 230.849 327.784 230.759 328.291 230.693C328.954 230.608 329.491 230.544 329.903 230.501C330.32 230.454 330.623 230.376 330.812 230.267C331.006 230.158 331.103 229.969 331.103 229.699V229.642C331.103 228.941 330.912 228.397 330.528 228.009C330.149 227.62 329.574 227.426 328.802 227.426C328.002 227.426 327.375 227.601 326.92 227.952C326.466 228.302 326.146 228.676 325.961 229.074L324.37 228.506C324.654 227.843 325.033 227.327 325.507 226.957C325.985 226.583 326.506 226.323 327.069 226.176C327.637 226.025 328.196 225.949 328.745 225.949C329.096 225.949 329.498 225.991 329.953 226.077C330.412 226.157 330.855 226.325 331.281 226.581C331.712 226.837 332.069 227.223 332.353 227.739C332.637 228.255 332.779 228.946 332.779 229.812V237H331.103V235.523H331.018C330.904 235.759 330.715 236.013 330.45 236.283C330.185 236.553 329.832 236.782 329.392 236.972C328.951 237.161 328.414 237.256 327.779 237.256ZM328.035 235.75C328.698 235.75 329.257 235.62 329.711 235.359C330.171 235.099 330.516 234.763 330.748 234.351C330.985 233.939 331.103 233.506 331.103 233.051V231.517C331.032 231.602 330.876 231.68 330.635 231.751C330.398 231.818 330.123 231.877 329.811 231.929C329.503 231.976 329.202 232.019 328.909 232.057C328.62 232.09 328.386 232.118 328.206 232.142C327.77 232.199 327.363 232.291 326.984 232.419C326.61 232.542 326.307 232.729 326.075 232.98C325.848 233.226 325.734 233.562 325.734 233.989C325.734 234.571 325.949 235.011 326.38 235.31C326.816 235.603 327.368 235.75 328.035 235.75ZM343.566 228.534L342.06 228.96C341.966 228.709 341.826 228.465 341.641 228.229C341.461 227.987 341.215 227.788 340.903 227.632C340.59 227.476 340.19 227.398 339.702 227.398C339.035 227.398 338.478 227.552 338.033 227.859C337.593 228.162 337.373 228.548 337.373 229.017C337.373 229.434 337.524 229.763 337.827 230.004C338.13 230.246 338.604 230.447 339.248 230.608L340.867 231.006C341.843 231.242 342.569 231.605 343.048 232.092C343.526 232.575 343.765 233.198 343.765 233.96C343.765 234.585 343.585 235.144 343.225 235.636C342.87 236.129 342.373 236.517 341.734 236.801C341.094 237.085 340.351 237.227 339.504 237.227C338.391 237.227 337.47 236.986 336.741 236.503C336.012 236.02 335.55 235.314 335.356 234.386L336.947 233.989C337.098 234.576 337.385 235.016 337.806 235.31C338.232 235.603 338.789 235.75 339.475 235.75C340.256 235.75 340.877 235.584 341.336 235.253C341.8 234.917 342.032 234.514 342.032 234.045C342.032 233.667 341.899 233.349 341.634 233.094C341.369 232.833 340.962 232.639 340.413 232.511L338.594 232.085C337.595 231.848 336.862 231.482 336.393 230.984C335.929 230.482 335.697 229.855 335.697 229.102C335.697 228.487 335.87 227.942 336.215 227.469C336.566 226.995 337.041 226.624 337.643 226.354C338.249 226.084 338.935 225.949 339.702 225.949C340.782 225.949 341.629 226.186 342.245 226.659C342.865 227.133 343.306 227.758 343.566 228.534ZM350.862 237.227C349.811 237.227 348.904 236.995 348.142 236.531C347.384 236.062 346.799 235.409 346.387 234.571C345.98 233.728 345.777 232.748 345.777 231.631C345.777 230.513 345.98 229.528 346.387 228.676C346.799 227.819 347.372 227.152 348.106 226.673C348.845 226.19 349.707 225.949 350.691 225.949C351.26 225.949 351.821 226.044 352.375 226.233C352.929 226.422 353.433 226.73 353.887 227.156C354.342 227.578 354.704 228.136 354.974 228.832C355.244 229.528 355.379 230.385 355.379 231.403V232.114H346.97V230.665H353.674C353.674 230.049 353.551 229.5 353.305 229.017C353.064 228.534 352.718 228.153 352.268 227.874C351.823 227.594 351.297 227.455 350.691 227.455C350.024 227.455 349.446 227.62 348.958 227.952C348.475 228.278 348.104 228.705 347.843 229.23C347.583 229.756 347.453 230.319 347.453 230.92V231.886C347.453 232.71 347.595 233.409 347.879 233.982C348.168 234.55 348.568 234.983 349.079 235.281C349.591 235.575 350.185 235.722 350.862 235.722C351.302 235.722 351.7 235.66 352.055 235.537C352.415 235.409 352.725 235.22 352.985 234.969C353.246 234.713 353.447 234.396 353.589 234.017L355.208 234.472C355.038 235.021 354.752 235.504 354.349 235.92C353.947 236.332 353.449 236.654 352.858 236.886C352.266 237.114 351.6 237.227 350.862 237.227ZM363.071 221.773L358.383 239.188H356.849L361.537 221.773H363.071ZM365.285 237V222.455H366.961V227.824H367.103C367.226 227.634 367.397 227.393 367.614 227.099C367.837 226.801 368.154 226.536 368.566 226.304C368.983 226.067 369.546 225.949 370.256 225.949C371.175 225.949 371.985 226.179 372.685 226.638C373.386 227.097 373.933 227.748 374.326 228.591C374.719 229.434 374.915 230.428 374.915 231.574C374.915 232.729 374.719 233.731 374.326 234.578C373.933 235.421 373.388 236.074 372.692 236.538C371.996 236.998 371.194 237.227 370.285 237.227C369.584 237.227 369.023 237.111 368.602 236.879C368.18 236.643 367.856 236.375 367.629 236.077C367.401 235.774 367.226 235.523 367.103 235.324H366.904V237H365.285ZM366.933 231.545C366.933 232.369 367.053 233.096 367.295 233.726C367.536 234.351 367.889 234.841 368.353 235.196C368.817 235.546 369.385 235.722 370.058 235.722C370.758 235.722 371.343 235.537 371.812 235.168C372.285 234.794 372.64 234.292 372.877 233.662C373.119 233.027 373.239 232.322 373.239 231.545C373.239 230.778 373.121 230.087 372.884 229.472C372.652 228.851 372.299 228.361 371.826 228.001C371.357 227.637 370.768 227.455 370.058 227.455C369.376 227.455 368.803 227.627 368.339 227.973C367.875 228.314 367.524 228.792 367.288 229.408C367.051 230.018 366.933 230.731 366.933 231.545ZM380.69 237.256C379.998 237.256 379.371 237.125 378.808 236.865C378.244 236.6 377.797 236.219 377.465 235.722C377.134 235.22 376.968 234.614 376.968 233.903C376.968 233.278 377.091 232.772 377.337 232.384C377.584 231.991 377.913 231.683 378.325 231.46C378.737 231.238 379.191 231.072 379.688 230.963C380.19 230.849 380.694 230.759 381.201 230.693C381.864 230.608 382.401 230.544 382.813 230.501C383.23 230.454 383.533 230.376 383.722 230.267C383.916 230.158 384.013 229.969 384.013 229.699V229.642C384.013 228.941 383.822 228.397 383.438 228.009C383.059 227.62 382.484 227.426 381.712 227.426C380.912 227.426 380.285 227.601 379.83 227.952C379.376 228.302 379.056 228.676 378.871 229.074L377.281 228.506C377.565 227.843 377.943 227.327 378.417 226.957C378.895 226.583 379.416 226.323 379.979 226.176C380.548 226.025 381.106 225.949 381.656 225.949C382.006 225.949 382.408 225.991 382.863 226.077C383.322 226.157 383.765 226.325 384.191 226.581C384.622 226.837 384.979 227.223 385.263 227.739C385.548 228.255 385.69 228.946 385.69 229.812V237H384.013V235.523H383.928C383.815 235.759 383.625 236.013 383.36 236.283C383.095 236.553 382.742 236.782 382.302 236.972C381.862 237.161 381.324 237.256 380.69 237.256ZM380.945 235.75C381.608 235.75 382.167 235.62 382.621 235.359C383.081 235.099 383.426 234.763 383.658 234.351C383.895 233.939 384.013 233.506 384.013 233.051V231.517C383.942 231.602 383.786 231.68 383.545 231.751C383.308 231.818 383.033 231.877 382.721 231.929C382.413 231.976 382.112 232.019 381.819 232.057C381.53 232.09 381.296 232.118 381.116 232.142C380.68 232.199 380.273 232.291 379.894 232.419C379.52 232.542 379.217 232.729 378.985 232.98C378.758 233.226 378.644 233.562 378.644 233.989C378.644 234.571 378.86 235.011 379.29 235.31C379.726 235.603 380.278 235.75 380.945 235.75ZM393.181 237.227C392.158 237.227 391.277 236.986 390.539 236.503C389.8 236.02 389.232 235.355 388.834 234.507C388.436 233.66 388.238 232.691 388.238 231.602C388.238 230.494 388.441 229.517 388.848 228.669C389.26 227.817 389.833 227.152 390.567 226.673C391.306 226.19 392.167 225.949 393.152 225.949C393.919 225.949 394.611 226.091 395.226 226.375C395.842 226.659 396.346 227.057 396.739 227.568C397.132 228.08 397.376 228.676 397.471 229.358H395.794C395.667 228.861 395.382 228.42 394.942 228.037C394.507 227.649 393.919 227.455 393.181 227.455C392.527 227.455 391.954 227.625 391.462 227.966C390.974 228.302 390.593 228.778 390.319 229.393C390.049 230.004 389.914 230.722 389.914 231.545C389.914 232.388 390.046 233.122 390.311 233.747C390.581 234.372 390.96 234.857 391.448 235.203C391.94 235.549 392.518 235.722 393.181 235.722C393.616 235.722 394.012 235.646 394.367 235.494C394.722 235.343 395.023 235.125 395.269 234.841C395.515 234.557 395.69 234.216 395.794 233.818H397.471C397.376 234.462 397.141 235.042 396.767 235.558C396.398 236.07 395.908 236.477 395.297 236.78C394.691 237.078 393.986 237.227 393.181 237.227ZM401.483 233.023L401.455 230.949H401.796L406.569 226.091H408.642L403.557 231.233H403.415L401.483 233.023ZM399.921 237V222.455H401.597V237H399.921ZM406.853 237L402.591 231.602L403.784 230.438L408.983 237H406.853ZM414.754 241.318C413.944 241.318 413.248 241.214 412.666 241.006C412.083 240.802 411.598 240.532 411.21 240.196C410.826 239.865 410.521 239.509 410.294 239.131L411.629 238.193C411.78 238.392 411.972 238.619 412.204 238.875C412.436 239.135 412.753 239.36 413.156 239.55C413.563 239.744 414.096 239.841 414.754 239.841C415.635 239.841 416.361 239.628 416.934 239.202C417.507 238.776 417.794 238.108 417.794 237.199V234.983H417.652C417.529 235.182 417.353 235.428 417.126 235.722C416.904 236.01 416.582 236.268 416.16 236.496C415.743 236.718 415.18 236.83 414.47 236.83C413.589 236.83 412.798 236.621 412.098 236.205C411.402 235.788 410.85 235.182 410.443 234.386C410.04 233.591 409.839 232.625 409.839 231.489C409.839 230.371 410.036 229.398 410.429 228.57C410.822 227.736 411.368 227.092 412.069 226.638C412.77 226.179 413.58 225.949 414.498 225.949C415.208 225.949 415.772 226.067 416.189 226.304C416.61 226.536 416.932 226.801 417.154 227.099C417.382 227.393 417.557 227.634 417.68 227.824H417.85V226.091H419.47V237.312C419.47 238.25 419.257 239.012 418.831 239.599C418.409 240.191 417.841 240.625 417.126 240.899C416.416 241.179 415.625 241.318 414.754 241.318ZM414.697 235.324C415.369 235.324 415.938 235.17 416.402 234.862C416.866 234.554 417.218 234.112 417.46 233.534C417.701 232.956 417.822 232.265 417.822 231.46C417.822 230.674 417.704 229.981 417.467 229.379C417.23 228.778 416.88 228.307 416.416 227.966C415.952 227.625 415.379 227.455 414.697 227.455C413.987 227.455 413.395 227.634 412.922 227.994C412.453 228.354 412.1 228.837 411.863 229.443C411.631 230.049 411.515 230.722 411.515 231.46C411.515 232.218 411.634 232.888 411.87 233.47C412.112 234.048 412.467 234.502 412.936 234.834C413.409 235.161 413.996 235.324 414.697 235.324ZM422.538 237V226.091H424.157V227.739H424.271C424.47 227.199 424.83 226.761 425.35 226.425C425.871 226.089 426.458 225.92 427.112 225.92C427.235 225.92 427.389 225.923 427.574 225.928C427.758 225.932 427.898 225.939 427.993 225.949V227.653C427.936 227.639 427.806 227.618 427.602 227.589C427.403 227.556 427.192 227.54 426.97 227.54C426.44 227.54 425.966 227.651 425.549 227.874C425.137 228.091 424.811 228.394 424.569 228.783C424.333 229.166 424.214 229.604 424.214 230.097V237H422.538ZM434.079 237.227C433.094 237.227 432.23 236.993 431.487 236.524C430.748 236.055 430.171 235.4 429.754 234.557C429.342 233.714 429.136 232.729 429.136 231.602C429.136 230.466 429.342 229.474 429.754 228.626C430.171 227.779 430.748 227.121 431.487 226.652C432.23 226.183 433.094 225.949 434.079 225.949C435.064 225.949 435.926 226.183 436.664 226.652C437.408 227.121 437.985 227.779 438.397 228.626C438.814 229.474 439.022 230.466 439.022 231.602C439.022 232.729 438.814 233.714 438.397 234.557C437.985 235.4 437.408 236.055 436.664 236.524C435.926 236.993 435.064 237.227 434.079 237.227ZM434.079 235.722C434.827 235.722 435.443 235.53 435.926 235.146C436.409 234.763 436.766 234.259 436.998 233.634C437.23 233.009 437.346 232.331 437.346 231.602C437.346 230.873 437.23 230.194 436.998 229.564C436.766 228.934 436.409 228.425 435.926 228.037C435.443 227.649 434.827 227.455 434.079 227.455C433.331 227.455 432.716 227.649 432.233 228.037C431.75 228.425 431.392 228.934 431.16 229.564C430.928 230.194 430.812 230.873 430.812 231.602C430.812 232.331 430.928 233.009 431.16 233.634C431.392 234.259 431.75 234.763 432.233 235.146C432.716 235.53 433.331 235.722 434.079 235.722ZM448.456 232.54V226.091H450.132V237H448.456V235.153H448.342C448.087 235.707 447.689 236.179 447.149 236.567C446.609 236.95 445.928 237.142 445.104 237.142C444.422 237.142 443.816 236.993 443.286 236.695C442.755 236.392 442.339 235.937 442.036 235.331C441.732 234.72 441.581 233.951 441.581 233.023V226.091H443.257V232.909C443.257 233.705 443.48 234.339 443.925 234.812C444.375 235.286 444.947 235.523 445.643 235.523C446.06 235.523 446.484 235.416 446.915 235.203C447.35 234.99 447.715 234.663 448.009 234.223C448.307 233.783 448.456 233.222 448.456 232.54ZM454.878 230.438V237H453.202V226.091H454.821V227.795H454.963C455.219 227.241 455.607 226.796 456.128 226.46C456.649 226.119 457.321 225.949 458.145 225.949C458.884 225.949 459.53 226.1 460.084 226.403C460.638 226.702 461.069 227.156 461.377 227.767C461.685 228.373 461.838 229.14 461.838 230.068V237H460.162V230.182C460.162 229.325 459.94 228.657 459.495 228.179C459.05 227.696 458.439 227.455 457.662 227.455C457.127 227.455 456.649 227.571 456.228 227.803C455.811 228.035 455.482 228.373 455.24 228.818C454.999 229.263 454.878 229.803 454.878 230.438ZM469.021 237.227C468.112 237.227 467.309 236.998 466.613 236.538C465.917 236.074 465.372 235.421 464.979 234.578C464.586 233.731 464.39 232.729 464.39 231.574C464.39 230.428 464.586 229.434 464.979 228.591C465.372 227.748 465.919 227.097 466.62 226.638C467.321 226.179 468.13 225.949 469.049 225.949C469.759 225.949 470.32 226.067 470.732 226.304C471.149 226.536 471.466 226.801 471.684 227.099C471.906 227.393 472.079 227.634 472.202 227.824H472.344V222.455H474.021V237H472.401V235.324H472.202C472.079 235.523 471.904 235.774 471.677 236.077C471.45 236.375 471.125 236.643 470.704 236.879C470.282 237.111 469.721 237.227 469.021 237.227ZM469.248 235.722C469.92 235.722 470.488 235.546 470.952 235.196C471.416 234.841 471.769 234.351 472.011 233.726C472.252 233.096 472.373 232.369 472.373 231.545C472.373 230.731 472.254 230.018 472.018 229.408C471.781 228.792 471.431 228.314 470.967 227.973C470.503 227.627 469.93 227.455 469.248 227.455C468.538 227.455 467.946 227.637 467.472 228.001C467.004 228.361 466.651 228.851 466.414 229.472C466.182 230.087 466.066 230.778 466.066 231.545C466.066 232.322 466.184 233.027 466.421 233.662C466.663 234.292 467.018 234.794 467.487 235.168C467.96 235.537 468.547 235.722 469.248 235.722Z" fill="white"/>
</svg>
