<svg width="553" height="311" viewBox="0 0 553 311" fill="none" xmlns="http://www.w3.org/2000/svg">
<path d="M440 171L437.333 173.917C435.919 175.464 434 176.333 432 176.333C430 176.333 428.082 175.464 426.668 173.917C425.251 172.374 423.333 171.507 421.334 171.507C419.334 171.507 417.416 172.374 416 173.917M392 176.333H396.465C397.77 176.333 398.422 176.333 399.036 176.186C399.58 176.055 400.1 175.84 400.578 175.547C401.116 175.218 401.577 174.756 402.499 173.834L436 140.333C438.209 138.124 438.209 134.542 436 132.333C433.791 130.124 430.209 130.124 428 132.333L394.499 165.834C393.577 166.756 393.116 167.218 392.786 167.756C392.494 168.233 392.278 168.753 392.147 169.297C392 169.911 392 170.563 392 171.868V176.333Z" stroke="#F3F6FA" stroke-width="5.33333" stroke-linecap="round" stroke-linejoin="round"/>
<path d="M322.5 155L302.5 143.453V166.547L322.5 155ZM304.5 155V153H292V155V157H304.5V155Z" fill="#F3F6FA"/>
<g clip-path="url(#clip0_59_282)">
<path d="M222.237 118.558C224.163 120.457 225.55 122.821 226.261 125.414C230.357 141.674 229.411 167.356 226.341 184.245C225.63 186.837 224.242 189.201 222.317 191.1C220.391 193 217.995 194.368 215.366 195.07C205.744 197.658 167.016 197.658 167.016 197.658C167.016 197.658 128.287 197.658 118.665 195.07C116.036 194.368 113.64 193 111.715 191.1C109.789 189.201 108.402 186.837 107.691 184.245C103.571 168.055 104.7 142.357 107.611 125.492C108.322 122.9 109.709 120.536 111.635 118.637C113.56 116.737 115.956 115.369 118.585 114.667C128.207 112.078 166.937 112 166.937 112C166.937 112 205.665 112 215.287 114.589C217.916 115.29 220.312 116.659 222.237 118.558ZM154.61 173.184L186.738 154.829L154.61 136.474V173.184Z" fill="#FF0000"/>
</g>
<defs>
<clipPath id="clip0_59_282">
<rect width="124" height="86" fill="white" transform="translate(105 112)"/>
</clipPath>
</defs>
</svg>
